<?xml version="1.0" encoding="UTF-8" standalone="no"?>
<!-- Created with Inkscape (http://www.inkscape.org/) -->

<svg
   xmlns:dc="http://purl.org/dc/elements/1.1/"
   xmlns:cc="http://creativecommons.org/ns#"
   xmlns:rdf="http://www.w3.org/1999/02/22-rdf-syntax-ns#"
   xmlns:svg="http://www.w3.org/2000/svg"
   xmlns="http://www.w3.org/2000/svg"
   xmlns:sodipodi="http://sodipodi.sourceforge.net/DTD/sodipodi-0.dtd"
   xmlns:inkscape="http://www.inkscape.org/namespaces/inkscape"
   width="250mm"
   height="100mm"
   viewBox="0 0 885.82675 354.33071"
   id="svg2"
   version="1.1"
   inkscape:version="0.91 r13725"
   sodipodi:docname="Walker2.svg">
  <sodipodi:namedview
     inkscape:snap-global="true"
     id="base"
     pagecolor="#5e5e5e"
     bordercolor="#919191"
     borderopacity="1"
     inkscape:pageopacity="0"
     inkscape:pageshadow="2"
     inkscape:zoom="1.28"
     inkscape:cx="432.09486"
     inkscape:cy="204.4166"
     inkscape:document-units="mm"
     inkscape:current-layer="svg2"
     showgrid="true"
     inkscape:window-width="1366"
     inkscape:window-height="744"
     inkscape:window-x="0"
     inkscape:window-y="1"
     inkscape:window-maximized="1"
     inkscape:snap-bbox="false"
     gridtolerance="10">
    <inkscape:grid
       type="xygrid"
       id="grid4133" />
  </sodipodi:namedview>
  <defs
     id="defs4" />
  <metadata
     id="metadata7">
    <rdf:RDF>
      <cc:Work
         rdf:about="">
        <dc:format>image/svg+xml</dc:format>
        <dc:type
           rdf:resource="http://purl.org/dc/dcmitype/StillImage" />
        <dc:title></dc:title>
      </cc:Work>
    </rdf:RDF>
  </metadata>
  <g
     inkscape:groupmode="layer"
     id="layer2"
     inkscape:label="Layer 2"
     transform="translate(0,-354.33071)">
    <g
       id="g8326"
       transform="translate(311.24968,0)">
      <path
         inkscape:connector-curvature="0"
         id="circle4297"
         d="m 460.11605,567.3174 a 8.2965219,8.2965219 0 0 1 -8.29652,8.29652 8.2965219,8.2965219 0 0 1 -8.29653,-8.29652 8.2965219,8.2965219 0 0 1 8.29653,-8.29652 8.2965219,8.2965219 0 0 1 8.29652,8.29652 z"
         style="fill:none;fill-opacity:1;stroke:#000000;stroke-width:0.4148261;stroke-linecap:round;stroke-miterlimit:4;stroke-dasharray:none;stroke-opacity:1" />
      <path
         inkscape:connector-curvature="0"
         id="path4454"
         style="fill:none;stroke:#000000;stroke-width:0.5988189;stroke-miterlimit:4;stroke-dasharray:none"
         d="m 444.78622,528.36883 -0.1767,-0.963 -0.1613,-0.5349 -0.2133,-0.525 -0.2483,-0.518 -0.2775,-0.5118 -0.3035,-0.5058 -0.3274,-0.5 -0.3497,-0.4942 -0.3709,-0.4881 -0.3911,-0.4821 -0.4106,-0.4758 -0.4295,-0.4695 -0.6155,0.1514 -0.6134,0.1599 -0.6111,0.1682 -0.6087,0.1767 -0.1372,0.6212 -0.1177,0.6174 -0.0977,0.6131 -0.0771,0.6082 -0.0558,0.6028 -0.0335,0.5967 -0.01,0.5898 0.0156,0.582 0.044,0.5727 0.0778,0.5613 0.1277,0.5439 0.3285,0.9223 -0.9237,0.3422 -0.9147,0.3654 -0.9052,0.3884 -0.8951,0.4112 -0.4199,-0.8844 -0.2943,-0.4749 -0.3418,-0.452 -0.3739,-0.4361 -0.4006,-0.4225 -0.4241,-0.41 -0.4456,-0.3982 -0.4657,-0.3868 -0.4846,-0.3756 -0.5025,-0.3644 -0.5198,-0.3533 -0.5363,-0.3423 -0.5554,0.3055 -0.5511,0.3132 -0.5467,0.3207 -0.5423,0.3282 0.0282,0.6356 0.0462,0.6268 0.0643,0.6174 0.0829,0.6075 0.1021,0.5966 0.1221,0.5851 0.143,0.5723 0.1657,0.5581 0.1907,0.5419 0.2205,0.522 0.2641,0.4923 0.556,0.8059 -0.8036,0.5695 -0.789,0.5898 -0.7738,0.6094 -0.7582,0.6288 -0.6345,-0.7456 -0.4072,-0.3825 -0.4472,-0.3481 -0.474,-0.3245 -0.4962,-0.3044 -0.5158,-0.2863 -0.5335,-0.2693 -0.5499,-0.2531 -0.5653,-0.2373 -0.5798,-0.2219 -0.5935,-0.2068 -0.6066,-0.1918 -0.4574,0.4388 -0.4513,0.4451 -0.4451,0.4513 -0.4388,0.4574 0.1918,0.6066 0.2068,0.5935 0.2219,0.5798 0.2373,0.5653 0.2531,0.5499 0.2693,0.5335 0.2863,0.5158 0.3044,0.4962 0.3245,0.474 0.3481,0.4472 0.3825,0.4072 0.7456,0.6345 -0.6288,0.7582 -0.6094,0.7738 -0.5898,0.789 -0.5695,0.8036 -0.8059,-0.556 -0.4923,-0.2641 -0.522,-0.2205 -0.5419,-0.1907 -0.5581,-0.1657 -0.5723,-0.143 -0.5851,-0.1221 -0.5966,-0.1021 -0.6075,-0.0829 -0.6174,-0.0643 -0.6268,-0.0462 -0.6356,-0.0282 -0.3282,0.5423 -0.3207,0.5467 -0.3132,0.5511 -0.3055,0.5554 0.3423,0.5363 0.3533,0.5198 0.3644,0.5025 0.3756,0.4846 0.3868,0.4657 0.3982,0.4456 0.41,0.4241 0.4225,0.4006 0.4361,0.3739 0.452,0.3418 0.4749,0.2943 0.8844,0.4199 -0.4112,0.8951 -0.3884,0.9052 -0.3654,0.9147 -0.3422,0.9237 -0.9223,-0.3285 -0.5439,-0.1277 -0.5613,-0.0778 -0.5727,-0.044 -0.582,-0.0156 -0.5898,0.01 -0.5967,0.0335 -0.6028,0.0558 -0.6082,0.0771 -0.6131,0.0977 -0.6174,0.1177 -0.6212,0.1372 -0.1767,0.6087 -0.1682,0.6111 -0.1599,0.6134 -0.1514,0.6155 0.4695,0.4295 0.4758,0.4106 0.4821,0.3911 0.4881,0.3709 0.4942,0.3497 0.5,0.3274 0.5058,0.3035 0.5118,0.2775 0.518,0.2483 0.525,0.2133 0.5349,0.1613 0.963,0.1767 -0.1655,0.971 -0.1409,0.9749 -0.1162,0.9781 -0.0915,0.9808 -0.9759,-0.0786 -0.5584,0.0174 -0.5623,0.0701 -0.5647,0.1057 -0.5661,0.1356 -0.5672,0.1623 -0.5677,0.1868 -0.5678,0.2099 -0.5675,0.2319 -0.5669,0.253 -0.5659,0.2735 -0.5645,0.2934 -0.0131,0.6337 -0.004,0.6338 0.004,0.6338 0.0131,0.6337 0.5645,0.2934 0.5659,0.2735 0.5669,0.253 0.5675,0.2319 0.5678,0.2099 0.5677,0.1868 0.5672,0.1623 0.5661,0.1356 0.5647,0.1057 0.5623,0.0701 0.5584,0.0174 0.9759,-0.0786 0.0915,0.9808 0.1162,0.9781 0.1409,0.9749 0.1655,0.971 -0.963,0.1767 -0.5349,0.1613 -0.525,0.2133 -0.518,0.2483 -0.5118,0.2775 -0.5058,0.3035 -0.5,0.3274 -0.4942,0.3497 -0.4881,0.3709 -0.4821,0.3911 -0.4758,0.4106 -0.4695,0.4295 0.1514,0.6155 0.1599,0.6134 0.1682,0.6111 0.1767,0.6087 0.6212,0.1372 0.6174,0.1177 0.6131,0.0977 0.6082,0.0771 0.6028,0.0558 0.5967,0.0335 0.5898,0.01 0.582,-0.0156 0.5727,-0.044 0.5613,-0.0778 0.5439,-0.1277 0.9223,-0.3285 0.3422,0.9237 0.3654,0.9147 0.3884,0.9052 0.4112,0.8951 -0.8844,0.4199 -0.4749,0.2943 -0.452,0.3418 -0.4361,0.3739 -0.4225,0.4006 -0.41,0.4241 -0.3982,0.4456 -0.3868,0.4657 -0.3756,0.4846 -0.3644,0.5025 -0.3533,0.5198 -0.3423,0.5363 0.3055,0.5554 0.3132,0.5511 0.3207,0.5467 0.3282,0.5423 0.6356,-0.0282 0.6268,-0.0462 0.6174,-0.0643 0.6075,-0.0829 0.5966,-0.1021 0.5851,-0.1221 0.5723,-0.143 0.5581,-0.1657 0.5419,-0.1907 0.522,-0.2205 0.4923,-0.2641 0.8059,-0.556 0.5695,0.8036 0.5898,0.789 0.6094,0.7738 0.6288,0.7582 -0.7456,0.6345 -0.3825,0.4072 -0.3481,0.4472 -0.3245,0.474 -0.3044,0.4962 -0.2863,0.5158 -0.2693,0.5335 -0.2531,0.5499 -0.2373,0.5653 -0.2219,0.5798 -0.2068,0.5935 -0.1918,0.6066 0.4388,0.4574 0.4451,0.4513 0.4513,0.4451 0.4574,0.4388 0.6066,-0.1918 0.5935,-0.2068 0.5798,-0.2219 0.5653,-0.2373 0.5499,-0.2531 0.5335,-0.2693 0.5158,-0.2863 0.4962,-0.3044 0.474,-0.3245 0.4472,-0.3481 0.4072,-0.3825 0.6345,-0.7456 0.7582,0.6288 0.7738,0.6094 c 0.52602,0.39321 1.05092,0.78762 1.5926,1.1593 l -0.556,0.8059 -0.2641,0.4923 -0.2205,0.522 -0.1907,0.5419 -0.1657,0.5581 -0.143,0.5723 -0.1221,0.5851 -0.1021,0.5966 -0.0829,0.6075 -0.0643,0.6174 -0.0462,0.6268 -0.0282,0.6356 0.5423,0.3282 0.5467,0.3207 0.5511,0.3132 0.5554,0.3055 0.5363,-0.3423 0.5198,-0.3533 0.5025,-0.3644 0.4846,-0.3756 0.4657,-0.3868 0.4456,-0.3982 0.4241,-0.41 0.4006,-0.4225 0.3739,-0.4361 0.3418,-0.452 0.2943,-0.4749 0.4199,-0.8844 0.8951,0.4112 0.9052,0.3884 0.9147,0.3654 0.9237,0.3422 -0.3285,0.9223 -0.1277,0.5439 -0.0778,0.5613 -0.044,0.5727 -0.0156,0.582 0.01,0.5898 0.0335,0.5967 0.0558,0.6028 0.0771,0.6082 0.0977,0.6131 0.1177,0.6174 0.1372,0.6212 0.6087,0.1767 0.6111,0.1682 0.6134,0.1599 0.6155,0.1514 0.4295,-0.4695 0.4106,-0.4758 0.3911,-0.4821 0.3709,-0.4881 0.3497,-0.4942 0.3274,-0.5 0.3035,-0.5058 0.2775,-0.5118 0.2483,-0.518 0.2133,-0.525 0.1613,-0.5349 0.1767,-0.963 0.971,0.1655 0.9749,0.1409 0.9781,0.1162 0.9808,0.0915 -0.0786,0.9759 0.0174,0.5584 0.0701,0.5623 0.1057,0.5647 0.1356,0.5661 0.1623,0.5672 0.1868,0.5677 0.2099,0.5678 0.2319,0.5675 0.253,0.5669 0.2735,0.5659 0.2934,0.5645 0.6337,0.0131 0.6338,0.004 0.6338,-0.004 0.6337,-0.0131 0.2934,-0.5645 0.2735,-0.5659 0.253,-0.5669 0.2319,-0.5675 0.2099,-0.5678 0.1868,-0.5677 0.1623,-0.5672 0.1356,-0.5661 0.1057,-0.5647 0.0701,-0.5623 0.0174,-0.5584 -0.0786,-0.9759 0.9808,-0.0915 0.9781,-0.1162 0.9749,-0.1409 0.971,-0.1655 0.1767,0.963 0.1613,0.5349 0.2133,0.525 0.2483,0.518 0.2775,0.5118 0.3035,0.5058 0.3274,0.5 0.3497,0.4942 0.3709,0.4881 0.3911,0.4821 0.4106,0.4758 0.4295,0.4695 0.6155,-0.1514 0.6134,-0.1599 0.6111,-0.1682 0.6087,-0.1767 0.1372,-0.6212 0.1177,-0.6174 0.0977,-0.6131 0.0771,-0.6082 0.0558,-0.6028 0.0335,-0.5967 0.01,-0.5898 -0.0156,-0.582 -0.044,-0.5727 -0.0778,-0.5613 -0.1277,-0.5439 -0.3285,-0.9223 0.9237,-0.3422 0.9147,-0.3654 0.9052,-0.3884 0.8951,-0.4112 0.4199,0.8844 0.2943,0.4749 0.3418,0.452 0.3739,0.4361 0.4006,0.4225 0.4241,0.41 0.4456,0.3982 0.4657,0.3868 0.4846,0.3756 0.5025,0.3644 0.5198,0.3533 0.5363,0.3423 0.5554,-0.3055 0.5511,-0.3132 0.5467,-0.3207 0.5423,-0.3282 -0.0282,-0.6356 -0.0462,-0.6268 -0.0643,-0.6174 -0.0829,-0.6075 -0.1021,-0.5966 -0.1221,-0.5851 -0.143,-0.5723 -0.1657,-0.5581 -0.1907,-0.5419 -0.2205,-0.522 -0.2641,-0.4923 -0.556,-0.8059 0.8036,-0.5695 0.789,-0.5898 0.7738,-0.6094 0.7582,-0.6288 0.6345,0.7456 0.4072,0.3825 0.4472,0.3481 0.474,0.3245 0.4962,0.3044 0.5158,0.2863 0.5335,0.2693 0.5499,0.2531 0.5653,0.2373 0.5798,0.2219 0.5935,0.2068 0.6066,0.1918 0.4574,-0.4388 0.4513,-0.4451 0.4451,-0.4513 0.4388,-0.4574 -0.1918,-0.6066 -0.2068,-0.5935 -0.2219,-0.5798 -0.2373,-0.5653 -0.2531,-0.5499 -0.2693,-0.5335 -0.2863,-0.5158 -0.3044,-0.4962 -0.3245,-0.474 -0.3481,-0.4472 -0.3825,-0.4072 -0.7456,-0.6345 0.6288,-0.7582 0.6094,-0.7738 0.5898,-0.789 0.5695,-0.8036 0.8059,0.556 0.4923,0.2641 0.522,0.2205 0.5419,0.1907 0.5581,0.1657 0.5723,0.143 0.5851,0.1221 0.5966,0.1021 0.6075,0.0829 0.6174,0.0643 0.6268,0.0462 0.6356,0.0282 0.3282,-0.5423 0.3207,-0.5467 0.3132,-0.5511 0.3055,-0.5554 -0.3423,-0.5363 -0.3533,-0.5198 -0.3644,-0.5025 -0.3756,-0.4846 -0.3868,-0.4657 -0.3982,-0.4456 -0.41,-0.4241 -0.4225,-0.4006 -0.4361,-0.3739 -0.452,-0.3418 -0.4749,-0.2943 -0.8844,-0.4199 0.4112,-0.8951 0.3884,-0.9052 0.3654,-0.9147 0.3422,-0.9237 0.9223,0.3285 0.5439,0.1277 0.5613,0.0778 0.5727,0.044 0.582,0.0156 0.5898,-0.01 0.5967,-0.0335 0.6028,-0.0558 0.6082,-0.0771 0.6131,-0.0977 0.6174,-0.1177 0.6212,-0.1372 0.1767,-0.6087 0.1682,-0.6111 0.1599,-0.6134 0.1514,-0.6155 -0.4695,-0.4295 -0.4758,-0.4106 -0.4821,-0.3911 -0.4881,-0.3709 -0.4942,-0.3497 -0.5,-0.3274 -0.5058,-0.3035 -0.5118,-0.2775 -0.518,-0.2483 -0.525,-0.2133 -0.5349,-0.1613 -0.963,-0.1767 0.1655,-0.971 0.1409,-0.9749 0.1162,-0.9781 0.0915,-0.9808 0.9759,0.0786 0.5584,-0.0174 0.5623,-0.0701 0.5647,-0.1057 0.5661,-0.1356 0.5672,-0.1623 0.5677,-0.1868 0.5678,-0.2099 0.5675,-0.2319 0.5669,-0.253 0.5659,-0.2735 0.5645,-0.2934 0.0131,-0.6337 0.004,-0.6338 -0.004,-0.6338 -0.0131,-0.6337 -0.5645,-0.2934 -0.5659,-0.2735 -0.5669,-0.253 -0.5675,-0.2319 -0.5678,-0.2099 -0.5677,-0.1868 -0.5672,-0.1623 -0.5661,-0.1356 -0.5647,-0.1057 -0.5623,-0.0701 -0.5584,-0.0174 -0.9759,0.0786 -0.0915,-0.9808 -0.1162,-0.9781 -0.1409,-0.9749 -0.1655,-0.971 0.963,-0.1767 0.5349,-0.1613 0.525,-0.2133 0.518,-0.2483 0.5118,-0.2775 0.5058,-0.3035 0.5,-0.3274 0.4942,-0.3497 0.4881,-0.3709 0.4821,-0.3911 0.4758,-0.4106 0.4695,-0.4295 -0.1514,-0.6155 -0.1599,-0.6134 -0.1682,-0.6111 -0.1767,-0.6087 -0.6212,-0.1372 -0.6174,-0.1177 -0.6131,-0.0977 -0.6082,-0.0771 -0.6028,-0.0558 -0.5967,-0.0335 -0.5898,-0.01 -0.582,0.0156 -0.5727,0.044 -0.5613,0.0778 -0.5439,0.1277 -0.9223,0.3285 -0.3422,-0.9237 -0.3654,-0.9147 -0.3884,-0.9052 -0.4112,-0.8951 0.8844,-0.4199 0.4749,-0.2943 0.452,-0.3418 0.4361,-0.3739 0.4225,-0.4006 0.41,-0.4241 0.3982,-0.4456 0.3868,-0.4657 0.3756,-0.4846 0.3644,-0.5025 0.3533,-0.5198 0.3423,-0.5363 -0.3055,-0.5554 -0.3132,-0.5511 -0.3207,-0.5467 -0.3282,-0.5423 -0.6356,0.0282 -0.6268,0.0462 -0.6174,0.0643 -0.6075,0.0829 -0.5966,0.1021 -0.5851,0.1221 -0.5723,0.143 -0.5581,0.1657 -0.5419,0.1907 -0.522,0.2205 -0.4923,0.2641 -0.8059,0.556 -0.5695,-0.8036 -0.5898,-0.789 -0.6094,-0.7738 -0.6288,-0.7582 0.7456,-0.6345 0.3825,-0.4072 0.3481,-0.4472 0.3245,-0.474 0.3044,-0.4962 0.2863,-0.5158 0.2693,-0.5335 0.2531,-0.5499 0.2373,-0.5653 0.2219,-0.5798 0.2068,-0.5935 0.1918,-0.6066 -0.4388,-0.4574 -0.4451,-0.4513 -0.4513,-0.4451 -0.4574,-0.4388 -0.6066,0.1918 -0.5935,0.2068 -0.5798,0.2219 -0.5653,0.2373 -0.5499,0.2531 -0.5335,0.2693 -0.5158,0.2863 -0.4962,0.3044 -0.474,0.3245 -0.4472,0.3481 -0.4072,0.3825 -0.6345,0.7456 -0.7582,-0.6288 -0.7738,-0.6094 -0.789,-0.5898 -0.8036,-0.5695 0.556,-0.8059 0.2641,-0.4923 0.2205,-0.522 0.1907,-0.5419 0.1657,-0.5581 0.143,-0.5723 0.1221,-0.5851 0.1021,-0.5966 0.0829,-0.6075 0.0643,-0.6174 0.0462,-0.6268 0.0282,-0.6356 -0.5423,-0.3282 -0.5467,-0.3207 -0.5511,-0.3132 -0.5554,-0.3055 -0.5363,0.3423 -0.5198,0.3533 -0.5025,0.3644 -0.4846,0.3756 -0.4657,0.3868 -0.4456,0.3982 -0.4241,0.41 -0.4006,0.4225 -0.3739,0.4361 -0.3418,0.452 -0.2943,0.4749 -0.4199,0.8844 -0.8951,-0.4112 -0.9052,-0.3884 -0.9147,-0.3654 -0.9237,-0.3422 0.3285,-0.9223 0.1277,-0.5439 0.0778,-0.5613 0.044,-0.5727 0.0156,-0.582 -0.01,-0.5898 -0.0335,-0.5967 -0.0558,-0.6028 -0.0771,-0.6082 -0.0977,-0.6131 -0.1177,-0.6174 -0.1372,-0.6212 -0.6087,-0.1767 -0.6111,-0.1682 -0.6134,-0.1599 -0.6155,-0.1514 -0.4295,0.4695 -0.4106,0.4758 -0.3911,0.4821 -0.3709,0.4881 -0.3497,0.4942 -0.3274,0.5 -0.3035,0.5058 -0.2775,0.5118 -0.2483,0.518 -0.2133,0.525 -0.1613,0.5349 -0.1767,0.963 -2.09111,-0.22356 -0.0191,14.10798 -9.34625,0 0.006,-14.10798 z"
         sodipodi:nodetypes="ccccccccccccccccccccccccccccccccccccccccccccccccccccccccccccccccccccccccccccccccccccccccccccccccccccccccccccccccccccccccccccccccccccccccccccccccccccccccccccccccccccccccccccccccccccccccccccccccccccccccccccccccccccccccccccccccccccccccccccccccccccccccccccccccccccccccccccccccccccccccccccccccccccccccccccccccccccccccccccccccccccccccccccccccccccccccccccccccccccccccccccccccccccccccccccccccccccccccccccccccccccccccccccccccccccccccccccccccccccccccccccccccccccccccccccccccccccccccccccccccccccccccccccccccccccccccccccccccccccccccccccccccccccccccccccccccccccccccccccccccccccccccccccccccccccccccccccccccccccccccccccccccccccccccccccccccccccccccccccccccccccccccccccccccccccccccccccccccccccccccccccccccccccccccccccccccccccccccccccccccccccccccccccccccc" />
    </g>
  </g>
  <path
     style="fill:none;fill-opacity:1;stroke:#000000;stroke-width:0.5988189;stroke-linecap:round;stroke-miterlimit:4;stroke-dasharray:none;stroke-opacity:1"
     d="m 855.26033,148.02575 -53.11805,0 0,-13.99176 42.91564,-0.0574 10.27433,-9.60391 0.13783,-86.766938 11.16621,0 -0.045,101.146198 z"
     id="path4277-8"
     inkscape:connector-curvature="0"
     sodipodi:nodetypes="ccccccccc" />
  <path
     style="fill:none;fill-opacity:1;stroke:#000000;stroke-width:0.34643286;stroke-linecap:round;stroke-miterlimit:4;stroke-dasharray:none;stroke-opacity:1"
     d="m 565.50557,5.5750919 17.49967,0 0.24069,3.7119801 10.30051,0 0,20.57608 -10.30051,0 -0.24069,3.71196 -17.49967,0 -0.1189,-3.71196 -10.3006,0 0,-20.57608 10.3006,0 z"
     id="path4331-9"
     inkscape:connector-curvature="0"
     sodipodi:nodetypes="ccccccccccccc" />
  <path
     sodipodi:nodetypes="cccsccssc"
     inkscape:connector-curvature="0"
     id="circle4389-8"
     d="m 697.80135,164.11135 c -8.57837,0 -15.94041,-5.20773 -19.09708,-12.63417 -1.76697,0.47345 -3.47305,0.52065 -4.91325,0.53507 -4.77296,0 -8.64221,-3.86924 -8.64221,-8.6422 0,-4.77296 3.86925,-8.64221 8.64221,-8.64221 1.79508,-0.28416 3.14628,0.60398 4.88415,0.60398 3.14032,-7.46312 10.52134,-12.70308 19.12622,-12.70308 11.45511,0 20.74131,9.2862 20.74131,20.74131 0,11.45511 -9.2862,20.7413 -20.74131,20.7413"
     style="fill:none;fill-opacity:1;stroke:#000000;stroke-width:1.03706551;stroke-linecap:round;stroke-miterlimit:4;stroke-dasharray:none;stroke-opacity:1" />
  <g
     transform="matrix(0,1,-1,0,205.75433,159.85721)"
     inkscape:label="RackGear20"
     id="g8112">
    <path
       sodipodi:nodetypes="cccccccccccccccccccccccccccccccccccccccccccccccccccccccccccccccccccccccccccccccccccccccccccccccccccccccccccccccccccccccccccccccccccccccccccccccccccccccccccccccccccccccccccc"
       inkscape:connector-curvature="0"
       d="m 125.83761,32.571945 -220.160053,0 0,-11.312145 220.112063,0 z M 143.27899,3.5433 l -17.7166,0 -2.5793,-7.0866 -2.9865,0 -2.5793,7.0866 -2.9865,0 -2.5793,-7.0866 -2.9865,0 -2.5793,7.0866 -2.9865,0 -2.5793,-7.0866 -2.986503,0 -2.5793,7.0866 -2.9865,0 -2.5794,-7.0866 -2.9865,0 -2.5793,7.0866 -2.9865,0 -2.5793,-7.0866 -2.9865,0 -2.5793,7.0866 -2.9865,0 -2.5793,-7.0866 -2.9865,0 -2.5793,7.0866 -2.9865,0 -2.5793,-7.0866 -2.9865,0 -2.5794,7.0866 -2.9865,0 -2.5793,-7.0866 -2.9865,0 -2.5793,7.0866 -2.9865,0 -2.5793,-7.0866 -2.9865,0 -2.5793,7.0866 -2.9865,0 -2.5793,-7.0866 -2.9865,0 -2.5793,7.0866 -2.9865,0 -2.5794,-7.0866 -2.9864005,0 -2.5794,7.0866 -2.9865,0 -2.57929995,-7.0866 -2.98650005,0 -2.5793,7.0866 -2.9865,0 -2.5792995,-7.0866 -2.9865,0 -2.5793,7.0866 -2.9865,0 -2.5793,-7.0866 -2.9865,0 -2.5793,7.0866 -2.9865,0 -2.5794,-7.0866 -2.9865,0 -2.5793,7.0866 -2.9865,0 -2.5793,-7.0866 -2.9865,0 -2.5793,7.0866 -2.9865,0 -2.5793,-7.0866 -2.9865,0 -2.5793,7.0866 -2.9865,0 -2.5793,-7.0866 -2.9865,0 -2.5794,7.0866 -2.9865,0 -2.5793,-7.0866 -2.9865,0 -2.5793,7.0866 -2.9865,0 -2.5793,-7.0866 -2.9865,0 -2.5793,7.0866 -17.716497,0 0,23.372572 0,23.372573 17.716497,0 2.5793,7.0866 2.9865,0 2.5793,-7.0866 2.9865,0 2.5793,7.0866 2.9865,0 2.5793,-7.0866 2.9865,0 2.5794,7.0866 2.9865,0 2.5793,-7.0866 2.9865,0 2.5793,7.0866 2.9865,0 2.5793,-7.0866 2.9865,0 2.5793,7.0866 2.9865,0 2.5793,-7.0866 2.9865,0 2.5793,7.0866 2.9865,0 2.5794,-7.0866 2.9865,0 2.5793,7.0866 2.9865,0 2.5793,-7.0866 2.9865,0 2.5793,7.0866 2.9865,0 2.5792995,-7.0866 2.9865,0 2.5793,7.0866 2.98650005,0 2.57929995,-7.0866 2.9865,0 2.5794,7.0866 2.9864005,0 2.5794,-7.0866 2.9865,0 2.5793,7.0866 2.9865,0 2.5793,-7.0866 2.9865,0 2.5793,7.0866 2.9865,0 2.5793,-7.0866 2.9865,0 2.5793,7.0866 2.9865,0 2.5793,-7.0866 2.9865,0 2.5794,7.0866 2.9865,0 2.5793,-7.0866 2.9865,0 2.5793,7.0866 2.9865,0 2.5793,-7.0866 2.9865,0 2.5793,7.0866 2.9865,0 2.5793,-7.0866 2.9865,0 2.5793,7.0866 2.9865,0 2.5794,-7.0866 2.9865,0 2.5793,7.0866 2.986503,0 2.5793,-7.0866 2.9865,0 2.5793,7.0866 2.9865,0 2.5793,-7.0866 2.9865,0 2.5793,7.0866 2.9865,0 2.5793,-7.0866 17.7166,0 0,-23.372573 z"
       style="fill:none;stroke:#000000;stroke-width:0.60000002"
       id="path8114" />
  </g>
  <g
     id="g8240"
     transform="translate(530.22783,0.54292921)">
    <path
       transform="translate(0,-354.33071)"
       inkscape:connector-curvature="0"
       id="path8242"
       d="m 245.94051,435.20236 a 8.2965219,8.2965219 0 0 1 -8.29652,8.29652 8.2965219,8.2965219 0 0 1 -8.29653,-8.29652 8.2965219,8.2965219 0 0 1 8.29653,-8.29652 8.2965219,8.2965219 0 0 1 8.29652,8.29652 z"
       style="fill:none;fill-opacity:1;stroke:#000000;stroke-width:0.4148261;stroke-linecap:round;stroke-miterlimit:4;stroke-dasharray:none;stroke-opacity:1" />
    <path
       inkscape:connector-curvature="0"
       d="m 240.70049,110.68195 -0.01,0.5005 -0.0616,0.5055 -0.0969,0.5083 -0.1267,0.5103 -0.1532,0.5115 -0.1781,0.5122 -0.2013,0.5123 -0.2236,0.512 -0.2452,0.5113 -0.266,0.51 -0.2865,0.5083 -0.6036,0.0154 -0.6038,0.005 -0.6038,-0.005 -0.6036,-0.0154 -0.2865,-0.5083 -0.266,-0.51 -0.2452,-0.5113 -0.2236,-0.512 -0.2013,-0.5123 -0.1781,-0.5122 -0.1532,-0.5115 -0.1267,-0.5103 -0.0969,-0.5083 -0.0616,-0.5055 -0.01,-0.5005 0.1653,-1.6117 -1.0182,-0.123 -1.013,-0.1598 -1.0066,-0.1963 -0.9988,-0.2326 -0.396,1.571 -0.1804,0.4669 -0.2308,0.4539 -0.2649,0.4445 -0.2935,0.4362 -0.319,0.4283 -0.3425,0.4204 -0.3644,0.4126 -0.3853,0.4046 -0.4052,0.3966 -0.4245,0.3882 -0.443,0.3797 -0.5725,-0.1919 -0.5691,-0.2017 -0.5657,-0.2114 -0.5619,-0.2209 -0.0953,-0.5756 -0.0756,-0.5703 -0.0555,-0.5642 -0.035,-0.5577 -0.014,-0.5503 0.008,-0.5422 0.0309,-0.5331 0.0556,-0.5228 0.0828,-0.5108 0.1149,-0.496 0.1619,-0.4737 0.7065,-1.458 -0.9146,-0.4638 -0.8973,-0.4966 -0.8788,-0.5288 -0.859,-0.5602 -0.9094,1.3408 -0.3293,0.3771 -0.3721,0.3476 -0.4009,0.3271 -0.425,0.3095 -0.4463,0.2933 -0.4656,0.2779 -0.4835,0.2631 -0.5005,0.2485 -0.5164,0.234 -0.5316,0.2197 -0.5462,0.2053 -0.4723,-0.3762 -0.4658,-0.3842 -0.4593,-0.3921 -0.4525,-0.3998 0.1074,-0.5735 0.124,-0.5617 0.1408,-0.5492 0.1578,-0.536 0.1751,-0.5219 0.1929,-0.5068 0.2113,-0.4903 0.231,-0.4723 0.2525,-0.4517 0.2777,-0.4268 0.3142,-0.3898 1.1625,-1.1284 -0.7008,-0.7487 -0.6733,-0.7735 -0.6449,-0.7975 -0.6157,-0.8202 -1.3131,0.949 -0.4384,0.2417 -0.4685,0.1993 -0.4887,0.1703 -0.5052,0.1454 -0.5197,0.123 -0.5325,0.102 -0.5444,0.0818 -0.5553,0.0623 -0.5653,0.0433 -0.5747,0.0246 -0.5834,0.006 -0.3152,-0.515 -0.3063,-0.5204 -0.2975,-0.5254 -0.2884,-0.5305 0.297,-0.5022 0.3086,-0.4854 0.3202,-0.468 0.3316,-0.4497 0.343,-0.4305 0.3546,-0.4103 0.3663,-0.3885 0.3786,-0.3648 0.3918,-0.338 0.4069,-0.3061 0.4285,-0.2589 1.4784,-0.6627 -0.4025,-0.9432 -0.3682,-0.9572 -0.3332,-0.9699 -0.298,-0.9813 -1.5585,0.4426 -0.4946,0.0771 -0.5085,0.0271 -0.5174,-0.007 -0.5245,-0.0361 -0.5304,-0.0622 -0.5353,-0.0863 -0.5395,-0.1094 -0.5431,-0.1313 -0.546,-0.1527 -0.5485,-0.1734 -0.5503,-0.1938 -0.12,-0.5918 -0.11,-0.5937 -0.0997,-0.5955 -0.0897,-0.5972 0.4509,-0.3703 0.4561,-0.3506 0.4608,-0.3302 0.4655,-0.3091 0.4696,-0.2873 0.4735,-0.2642 0.4771,-0.2398 0.4805,-0.2133 0.4838,-0.1837 0.4871,-0.1485 0.4911,-0.0966 1.6159,-0.1172 -0.0556,-1.024 -0.0186,-1.0254 0.0186,-1.0254 0.0556,-1.024 -1.6159,-0.1172 -0.4911,-0.0966 -0.4871,-0.1485 -0.4838,-0.1837 -0.4805,-0.2133 -0.4771,-0.2398 -0.4735,-0.2642 -0.4696,-0.2873 -0.4655,-0.3091 -0.4608,-0.3302 -0.4561,-0.3506 -0.4509,-0.3703 0.0897,-0.5972 0.0997,-0.5955 0.11,-0.5937 0.12,-0.5918 0.5503,-0.1938 0.5485,-0.1734 0.546,-0.1527 0.5431,-0.1313 0.5395,-0.1094 0.5353,-0.0863 0.5304,-0.0622 0.5245,-0.0361 0.5174,-0.007 0.5085,0.0271 0.4946,0.0771 1.5585,0.4426 0.298,-0.9813 0.3332,-0.9699 0.3682,-0.9572 0.4025,-0.9432 -1.4784,-0.6627 -0.4285,-0.2589 -0.4069,-0.3061 -0.3918,-0.338 -0.3786,-0.3648 -0.3663,-0.3885 -0.3546,-0.4103 -0.343,-0.4305 -0.3316,-0.4497 -0.3202,-0.468 -0.3086,-0.4854 -0.297,-0.5022 0.2884,-0.5305 0.2975,-0.5254 0.3063,-0.5204 0.3152,-0.515 0.5834,0.006 0.5747,0.0246 0.5653,0.0433 0.5553,0.0623 0.5444,0.0818 0.5325,0.102 0.5197,0.123 0.5052,0.1454 0.4887,0.1703 0.4685,0.1993 0.4384,0.2417 1.3131,0.949 0.6157,-0.8202 0.6449,-0.7975 0.6733,-0.7735 0.7008,-0.7487 -1.1625,-1.1284 -0.3142,-0.3898 -0.2777,-0.4268 -0.2525,-0.4517 -0.231,-0.4723 -0.2113,-0.4903 -0.1929,-0.5068 -0.1751,-0.5219 -0.1578,-0.536 -0.1408,-0.5492 -0.124,-0.5617 -0.1074,-0.5735 0.4525,-0.3998 0.4593,-0.3921 0.4658,-0.3842 0.4723,-0.3762 0.5462,0.2053 0.5316,0.2197 0.5164,0.234 0.5005,0.2485 0.4835,0.2631 0.4656,0.2779 0.4463,0.2933 0.425,0.3095 0.4009,0.3271 0.3721,0.3476 0.3293,0.3771 0.9094,1.3408 0.859,-0.5602 0.8788,-0.5288 0.8973,-0.4966 0.9146,-0.4638 -0.7065,-1.458 -0.1619,-0.4737 -0.1149,-0.496 -0.0828,-0.5108 -0.0556,-0.5228 -0.0309,-0.5331 -0.008,-0.5422 0.014,-0.5503 0.035,-0.5577 0.0555,-0.5642 0.0756,-0.5703 0.0953,-0.5756 0.5619,-0.2209 0.5657,-0.2114 0.5691,-0.2017 0.5725,-0.1919 0.443,0.3797 0.4245,0.3882 0.4052,0.3966 0.3853,0.4046 0.3644,0.4126 0.3425,0.4204 0.319,0.4283 0.2935,0.4362 0.2649,0.4445 0.2308,0.4539 0.1804,0.4669 0.396,1.571 0.9988,-0.2326 1.0066,-0.1963 1.013,-0.1598 1.0182,-0.123 -0.1653,-1.6117 0.01,-0.5005 0.0616,-0.5055 0.0969,-0.5083 0.1267,-0.5103 0.1532,-0.5115 0.1781,-0.5122 0.2013,-0.5123 0.2236,-0.512 0.2452,-0.5113 0.266,-0.51 0.2865,-0.5083 0.6036,-0.0154 0.6038,-0.005 0.6038,0.005 0.6036,0.0154 0.2865,0.5083 0.266,0.51 0.2452,0.5113 0.2236,0.512 0.2013,0.5123 0.1781,0.5122 0.1532,0.5115 0.1267,0.5103 0.0969,0.5083 0.0616,0.5055 0.01,0.5005 -0.1653,1.6117 1.0182,0.123 1.013,0.1598 1.0066,0.1963 0.9988,0.2326 0.396,-1.571 0.1804,-0.4669 0.2308,-0.4539 0.2649,-0.4445 0.2935,-0.4362 0.319,-0.4283 0.3425,-0.4204 0.3644,-0.4126 0.3853,-0.4046 0.4052,-0.3966 0.4245,-0.3882 0.443,-0.3797 0.5725,0.1919 0.5691,0.2017 0.5657,0.2114 0.5619,0.2209 0.0953,0.5756 0.0756,0.5703 0.0555,0.5642 0.035,0.5577 0.014,0.5503 -0.008,0.5422 -0.0309,0.5331 -0.0556,0.5228 -0.0828,0.5108 -0.1149,0.496 -0.1619,0.4737 -0.7065,1.458 0.9146,0.4638 0.8973,0.4966 0.8788,0.5288 0.859,0.5602 0.9094,-1.3408 0.3293,-0.3771 0.3721,-0.3476 0.4009,-0.3271 0.425,-0.3095 0.4463,-0.2933 0.4656,-0.2779 0.4835,-0.2631 0.5005,-0.2485 0.5164,-0.234 0.5316,-0.2197 0.5462,-0.2053 0.4723,0.3762 0.4658,0.3842 0.4593,0.3921 0.4525,0.3998 -0.1074,0.5735 -0.124,0.5617 -0.1408,0.5492 -0.1578,0.536 -0.1751,0.5219 -0.1929,0.5068 -0.2113,0.4903 -0.231,0.4723 -0.2525,0.4517 -0.2777,0.4268 -0.3142,0.3898 -1.1625,1.1284 0.7008,0.7487 0.6733,0.7735 0.6449,0.7975 0.6157,0.8202 1.3131,-0.949 0.4384,-0.2417 0.4685,-0.1993 0.4887,-0.1703 0.5052,-0.1454 0.5197,-0.123 0.5325,-0.102 0.5444,-0.0818 0.5553,-0.0623 0.5653,-0.0433 0.5747,-0.0246 0.5834,-0.006 0.3152,0.515 0.3063,0.5204 0.2975,0.5254 0.2884,0.5305 -0.297,0.5022 -0.3086,0.4854 -0.3202,0.468 -0.3316,0.4497 -0.343,0.4305 -0.3546,0.4103 -0.3663,0.3885 -0.3786,0.3648 -0.3918,0.338 -0.4069,0.3061 -0.4285,0.2589 -1.4784,0.6627 0.4025,0.9432 0.3682,0.9572 0.3332,0.9699 0.298,0.9813 1.5585,-0.4426 0.4946,-0.0771 0.5085,-0.0271 0.5174,0.007 0.5245,0.0361 0.5304,0.0622 0.5353,0.0863 0.5395,0.1094 0.5431,0.1313 0.546,0.1527 0.5485,0.1734 0.5503,0.1938 0.12,0.5918 0.11,0.5937 0.0997,0.5955 0.0897,0.5972 -0.4509,0.3703 -0.4561,0.3506 -0.4608,0.3302 -0.4655,0.3091 -0.4696,0.2873 -0.4735,0.2642 -0.4771,0.2398 -0.4805,0.2133 -0.4838,0.1837 -0.4871,0.1485 -0.4911,0.0966 -1.6159,0.1172 0.0556,1.024 0.0186,1.0254 -0.0186,1.0254 -0.0556,1.024 1.6159,0.1172 0.4911,0.0966 0.4871,0.1485 0.4838,0.1837 0.4805,0.2133 0.4771,0.2398 0.4735,0.2642 0.4696,0.2873 0.4655,0.3091 0.4608,0.3302 0.4561,0.3506 0.4509,0.3703 -0.0897,0.5972 -0.0997,0.5955 -0.11,0.5937 -0.12,0.5918 -0.5503,0.1938 -0.5485,0.1734 -0.546,0.1527 -0.5431,0.1313 -0.5395,0.1094 -0.5353,0.0863 -0.5304,0.0622 -0.5245,0.0361 -0.5174,0.007 -0.5085,-0.0271 -0.4946,-0.0771 -1.5585,-0.4426 -0.298,0.9813 -0.3332,0.9699 -0.3682,0.9572 -0.4025,0.9432 1.4784,0.6627 0.4285,0.2589 0.4069,0.3061 0.3918,0.338 0.3786,0.3648 0.3663,0.3885 0.3546,0.4103 0.343,0.4305 0.3316,0.4497 0.3202,0.468 0.3086,0.4854 0.297,0.5022 -0.2884,0.5305 -0.2975,0.5254 -0.3063,0.5204 -0.3152,0.515 -0.5834,-0.006 -0.5747,-0.0246 -0.5653,-0.0433 -0.5553,-0.0623 -0.5444,-0.0818 -0.5325,-0.102 -0.5197,-0.123 -0.5052,-0.1454 -0.4887,-0.1703 -0.4685,-0.1993 -0.4384,-0.2417 -1.3131,-0.949 -0.6157,0.8202 -0.6449,0.7975 -0.6733,0.7735 -0.7008,0.7487 1.1625,1.1284 0.3142,0.3898 0.2777,0.4268 0.2525,0.4517 0.231,0.4723 0.2113,0.4903 0.1929,0.5068 0.1751,0.5219 0.1578,0.536 0.1408,0.5492 0.124,0.5617 0.1074,0.5735 -0.4525,0.3998 -0.4593,0.3921 -0.4658,0.3842 -0.4723,0.3762 -0.5462,-0.2053 -0.5316,-0.2197 -0.5164,-0.234 -0.5005,-0.2485 -0.4835,-0.2631 -0.4656,-0.2779 -0.4463,-0.2933 -0.425,-0.3095 -0.4009,-0.3271 -0.3721,-0.3476 -0.3293,-0.3771 -0.9094,-1.3408 -0.859,0.5602 -0.8788,0.5288 -0.8973,0.4966 -0.9146,0.4638 0.7065,1.458 0.1619,0.4737 0.1149,0.496 0.0828,0.5108 0.0556,0.5228 0.0309,0.5331 0.008,0.5422 -0.014,0.5503 -0.035,0.5577 -0.0555,0.5642 -0.0756,0.5703 -0.0953,0.5756 -0.5619,0.2209 -0.5657,0.2114 -0.5691,0.2017 -0.5725,0.1919 -0.443,-0.3797 -0.4245,-0.3882 -0.4052,-0.3966 -0.3853,-0.4046 -0.3644,-0.4126 -0.3425,-0.4204 -0.319,-0.4283 -0.2935,-0.4362 -0.2649,-0.4445 -0.2308,-0.4539 -0.1804,-0.4669 -0.396,-1.571 -0.9988,0.2326 -1.0066,0.1963 -1.013,0.1598 -1.0182,0.123 z"
       style="fill:none;stroke:#000000;stroke-width:0.60000002"
       id="path8244"
       sodipodi:nodetypes="ccccccccccccccccccccccccccccccccccccccccccccccccccccccccccccccccccccccccccccccccccccccccccccccccccccccccccccccccccccccccccccccccccccccccccccccccccccccccccccccccccccccccccccccccccccccccccccccccccccccccccccccccccccccccccccccccccccccccccccccccccccccccccccccccccccccccccccccccccccccccccccccccccccccccccccccccccccccccccccccccccccccccccccccccccccccccccccccccccccccccccccccccccccccccccccccccccccccccccccccccccccccccccccccccccccccccccccccccccccccccccccccccccccccccccccccccccccccccccccccccccccccccccccccccccccccccccccccccccccccccccccccccccccccccccccccccccccccccccccccccccccccccccccccccc" />
  </g>
  <g
     id="g8256"
     transform="matrix(0,1,-1,0,722.66915,-71.913823)"
     style="stroke:#000000;stroke-width:0.35433072;stroke-miterlimit:4;stroke-dasharray:none;stroke-opacity:1">
    <path
       style="opacity:1;fill:none;fill-opacity:1;stroke:#000000;stroke-width:0.35433072;stroke-linecap:round;stroke-linejoin:round;stroke-miterlimit:4;stroke-dasharray:none;stroke-opacity:1"
       d="m 259.21676,87.809199 -0.0144,6.827835 -6.02042,0 0,-24.11022 6.02042,0 0.0258,6.74998 94.85879,-0.0037 -0.042,-10.636002 10.62992,0 -0.005,10.656144 11.67821,0.02454 0,10.528463 -11.67819,-0.0022 0.005,10.682862 -10.62992,0 0.042,-10.684535 z"
       id="path8258"
       inkscape:connector-curvature="0"
       sodipodi:nodetypes="ccccccccccccccccc" />
  </g>
  <g
     id="g8348">
    <path
       sodipodi:nodetypes="sssssssss"
       style="fill:none;fill-opacity:1;stroke:#000000;stroke-width:0.45476747;stroke-linecap:round;stroke-miterlimit:4;stroke-dasharray:none;stroke-opacity:1"
       d="m 305.33594,44.844272 0,176.285438 c 0,8.33013 -9.81505,15.03633 -22.00684,15.03633 l -203.563023,0 c -12.1918,0 -22.00685,-6.7062 -22.00685,-15.03633 l 0,-176.285438 c 0,-8.33013 9.81505,-15.03634 22.00685,-15.03634 l 203.563023,0 c 12.19179,0 22.00684,6.70621 22.00684,15.03634 z"
       id="rect4214-8"
       inkscape:connector-curvature="0" />
    <path
       inkscape:connector-curvature="0"
       id="path21757-0"
       d="m 173.87814,119.43269 10.08771,0 0,20.98767 -10.08771,0 z"
       style="fill:none;fill-opacity:1;stroke:#000000;stroke-width:0.5422048;stroke-linecap:round;stroke-miterlimit:4;stroke-dasharray:none;stroke-opacity:1" />
    <g
       id="g8141"
       transform="matrix(-1,0,0,1,408.30426,-303.47881)">
      <path
         sodipodi:nodetypes="ccccccccccccccccccccccccccccccccccccccccccccccccccccccccccccccccccccccccccccccccccccccccccccccccccccccccccccccccccccccccccccccccccccccccccccccccccccccccccccccccccccccccccccccccccccccccccccccccccccccccccccccccccccccccccccccccccccccccccccccccccccccccccccccccccccccccccccccccccccccccccccccccccccccccccccccccccccccccccccccccccccccccccccccccccccccccccccccccccccccccccccccccccccccccccccccccccccccccccccccccccccccccccccccccccccccccccccccccccccccccccccccccccccccccccccccccccccccccccccccccccccccccccccccccccccccccccccccccccccccccccccccccccccccccccccccccccccccccccccccccccccccccccccccccc"
         id="path8143"
         style="fill:none;stroke:#000000;stroke-width:0.60000002"
         d="m 291.32783,481.21788 -0.01,0.5005 -0.0616,0.5055 -0.0969,0.5083 -0.1267,0.5103 -0.1532,0.5115 -0.1781,0.5122 -0.2013,0.5123 -0.2236,0.512 -0.2452,0.5113 -0.266,0.51 -0.2865,0.5083 -0.6036,0.0154 -0.6038,0.005 -0.6038,-0.005 -0.6036,-0.0154 -0.2865,-0.5083 -0.266,-0.51 -0.2452,-0.5113 -0.2236,-0.512 -0.2013,-0.5123 -0.1781,-0.5122 -0.1532,-0.5115 -0.1267,-0.5103 -0.0969,-0.5083 -0.0616,-0.5055 -0.01,-0.5005 0.1653,-1.6117 -1.0182,-0.123 -1.013,-0.1598 -1.0066,-0.1963 -0.9988,-0.2326 -0.396,1.571 -0.1804,0.4669 -0.2308,0.4539 -0.2649,0.4445 -0.2935,0.4362 -0.319,0.4283 -0.3425,0.4204 -0.3644,0.4126 -0.3853,0.4046 -0.4052,0.3966 -0.4245,0.3882 -0.443,0.3797 -0.5725,-0.1919 -0.5691,-0.2017 -0.5657,-0.2114 -0.5619,-0.2209 -0.0953,-0.5756 -0.0756,-0.5703 -0.0555,-0.5642 -0.035,-0.5577 -0.014,-0.5503 0.008,-0.5422 0.0309,-0.5331 0.0556,-0.5228 0.0828,-0.5108 0.1149,-0.496 0.1619,-0.4737 0.7065,-1.458 -0.9146,-0.4638 -0.8973,-0.4966 -0.8788,-0.5288 -0.859,-0.5602 -0.9094,1.3408 -0.3293,0.3771 -0.3721,0.3476 -0.4009,0.3271 -0.425,0.3095 -0.4463,0.2933 -0.4656,0.2779 -0.4835,0.2631 -0.5005,0.2485 -0.5164,0.234 -0.5316,0.2197 -0.5462,0.2053 -0.4723,-0.3762 -0.4658,-0.3842 -0.4593,-0.3921 -0.4525,-0.3998 0.1074,-0.5735 0.124,-0.5617 0.1408,-0.5492 0.1578,-0.536 0.1751,-0.5219 0.1929,-0.5068 0.2113,-0.4903 0.231,-0.4723 0.2525,-0.4517 0.2777,-0.4268 0.3142,-0.3898 1.1625,-1.1284 -0.7008,-0.7487 -0.6733,-0.7735 -0.6449,-0.7975 -0.6157,-0.8202 -1.3131,0.949 -0.4384,0.2417 -0.4685,0.1993 -0.4887,0.1703 -0.5052,0.1454 -0.5197,0.123 -0.5325,0.102 -0.5444,0.0818 -0.5553,0.0623 -0.5653,0.0433 -0.5747,0.0246 -0.5834,0.006 -0.3152,-0.515 -0.3063,-0.5204 -0.2975,-0.5254 -0.2884,-0.5305 0.297,-0.5022 0.3086,-0.4854 0.3202,-0.468 0.3316,-0.4497 0.343,-0.4305 0.3546,-0.4103 0.3663,-0.3885 0.3786,-0.3648 0.3918,-0.338 0.4069,-0.3061 0.4285,-0.2589 1.4784,-0.6627 -0.4025,-0.9432 -0.3682,-0.9572 -0.3332,-0.9699 -0.298,-0.9813 -1.5585,0.4426 -0.4946,0.0771 -0.5085,0.0271 -0.5174,-0.007 -0.5245,-0.0361 -0.5304,-0.0622 -0.5353,-0.0863 -0.5395,-0.1094 -0.5431,-0.1313 -0.546,-0.1527 -0.5485,-0.1734 -0.5503,-0.1938 -0.12,-0.5918 -0.11,-0.5937 -0.0997,-0.5955 -0.0897,-0.5972 0.4509,-0.3703 0.4561,-0.3506 0.4608,-0.3302 0.4655,-0.3091 0.4696,-0.2873 0.4735,-0.2642 0.4771,-0.2398 0.4805,-0.2133 0.4838,-0.1837 0.4871,-0.1485 0.4911,-0.0966 1.6159,-0.1172 -0.0556,-1.024 -0.0186,-1.0254 0.0186,-1.0254 0.0556,-1.024 -1.6159,-0.1172 -0.4911,-0.0966 -0.4871,-0.1485 -0.4838,-0.1837 -0.4805,-0.2133 -0.4771,-0.2398 -0.4735,-0.2642 -0.4696,-0.2873 -0.4655,-0.3091 -0.4608,-0.3302 -0.4561,-0.3506 -0.4509,-0.3703 0.0897,-0.5972 0.0997,-0.5955 0.11,-0.5937 0.12,-0.5918 0.5503,-0.1938 0.5485,-0.1734 0.546,-0.1527 0.5431,-0.1313 0.5395,-0.1094 0.5353,-0.0863 0.5304,-0.0622 0.5245,-0.0361 0.5174,-0.007 0.5085,0.0271 0.4946,0.0771 1.5585,0.4426 0.298,-0.9813 0.3332,-0.9699 0.3682,-0.9572 0.4025,-0.9432 -1.4784,-0.6627 -0.4285,-0.2589 -0.4069,-0.3061 -0.3918,-0.338 -0.3786,-0.3648 -0.3663,-0.3885 -0.3546,-0.4103 -0.343,-0.4305 -0.3316,-0.4497 -0.3202,-0.468 -0.3086,-0.4854 -0.297,-0.5022 0.2884,-0.5305 0.2975,-0.5254 0.3063,-0.5204 0.3152,-0.515 0.5834,0.006 0.5747,0.0246 0.5653,0.0433 0.5553,0.0623 0.5444,0.0818 0.5325,0.102 0.5197,0.123 0.5052,0.1454 0.4887,0.1703 0.4685,0.1993 0.4384,0.2417 1.3131,0.949 0.6157,-0.8202 0.6449,-0.7975 0.6733,-0.7735 0.7008,-0.7487 -1.1625,-1.1284 -0.3142,-0.3898 -0.2777,-0.4268 -0.2525,-0.4517 -0.231,-0.4723 -0.2113,-0.4903 -0.1929,-0.5068 -0.1751,-0.5219 -0.1578,-0.536 -0.1408,-0.5492 -0.124,-0.5617 -0.1074,-0.5735 0.4525,-0.3998 0.4593,-0.3921 0.4658,-0.3842 0.4723,-0.3762 0.5462,0.2053 0.5316,0.2197 0.5164,0.234 0.5005,0.2485 0.4835,0.2631 0.4656,0.2779 0.4463,0.2933 0.425,0.3095 0.4009,0.3271 0.3721,0.3476 0.3293,0.3771 0.9094,1.3408 0.859,-0.5602 0.8788,-0.5288 0.8973,-0.4966 0.9146,-0.4638 -0.7065,-1.458 -0.1619,-0.4737 -0.1149,-0.496 -0.0828,-0.5108 -0.0556,-0.5228 -0.0309,-0.5331 -0.008,-0.5422 0.014,-0.5503 0.035,-0.5577 0.0555,-0.5642 0.0756,-0.5703 0.0953,-0.5756 0.5619,-0.2209 0.5657,-0.2114 0.5691,-0.2017 0.5725,-0.1919 0.443,0.3797 0.4245,0.3882 0.4052,0.3966 0.3853,0.4046 0.3644,0.4126 0.3425,0.4204 0.319,0.4283 0.2935,0.4362 0.2649,0.4445 0.2308,0.4539 0.1804,0.4669 0.396,1.571 0.9988,-0.2326 1.0066,-0.1963 1.013,-0.1598 1.0182,-0.123 -0.1653,-1.6117 0.01,-0.5005 0.0616,-0.5055 0.0969,-0.5083 0.1267,-0.5103 0.1532,-0.5115 0.1781,-0.5122 0.2013,-0.5123 0.2236,-0.512 0.2452,-0.5113 0.266,-0.51 0.2865,-0.5083 0.6036,-0.0154 0.6038,-0.005 0.6038,0.005 0.6036,0.0154 0.2865,0.5083 0.266,0.51 0.2452,0.5113 0.2236,0.512 0.2013,0.5123 0.1781,0.5122 0.1532,0.5115 0.1267,0.5103 0.0969,0.5083 0.0616,0.5055 0.01,0.5005 -0.1653,1.6117 1.0182,0.123 1.013,0.1598 1.0066,0.1963 0.9988,0.2326 0.396,-1.571 0.1804,-0.4669 0.2308,-0.4539 0.2649,-0.4445 0.2935,-0.4362 0.319,-0.4283 0.3425,-0.4204 0.3644,-0.4126 0.3853,-0.4046 0.4052,-0.3966 0.4245,-0.3882 0.443,-0.3797 0.5725,0.1919 0.5691,0.2017 0.5657,0.2114 0.5619,0.2209 0.0953,0.5756 0.0756,0.5703 0.0555,0.5642 0.035,0.5577 0.014,0.5503 -0.008,0.5422 -0.0309,0.5331 -0.0556,0.5228 -0.0828,0.5108 -0.1149,0.496 -0.1619,0.4737 -0.7065,1.458 0.9146,0.4638 0.8973,0.4966 0.8788,0.5288 0.859,0.5602 0.9094,-1.3408 0.3293,-0.3771 0.3721,-0.3476 0.4009,-0.3271 0.425,-0.3095 0.4463,-0.2933 0.4656,-0.2779 0.4835,-0.2631 0.5005,-0.2485 0.5164,-0.234 0.5316,-0.2197 0.5462,-0.2053 0.4723,0.3762 0.4658,0.3842 0.4593,0.3921 0.4525,0.3998 -0.1074,0.5735 -0.124,0.5617 -0.1408,0.5492 -0.1578,0.536 -0.1751,0.5219 -0.1929,0.5068 -0.2113,0.4903 -0.231,0.4723 -0.2525,0.4517 -0.2777,0.4268 -0.3142,0.3898 -1.1625,1.1284 0.7008,0.7487 0.6733,0.7735 0.6449,0.7975 0.6157,0.8202 1.3131,-0.949 0.4384,-0.2417 0.4685,-0.1993 0.4887,-0.1703 0.5052,-0.1454 0.5197,-0.123 0.5325,-0.102 0.5444,-0.0818 0.5553,-0.0623 0.5653,-0.0433 0.5747,-0.0246 0.5834,-0.006 0.3152,0.515 0.3063,0.5204 0.2975,0.5254 0.2884,0.5305 -0.297,0.5022 -0.3086,0.4854 -0.3202,0.468 -0.3316,0.4497 -0.343,0.4305 -0.3546,0.4103 -0.3663,0.3885 -0.3786,0.3648 -0.3918,0.338 -0.4069,0.3061 -0.4285,0.2589 -1.4784,0.6627 0.4025,0.9432 0.3682,0.9572 0.3332,0.9699 0.298,0.9813 1.5585,-0.4426 0.4946,-0.0771 0.5085,-0.0271 0.5174,0.007 0.5245,0.0361 0.5304,0.0622 0.5353,0.0863 0.5395,0.1094 0.5431,0.1313 0.546,0.1527 0.5485,0.1734 0.5503,0.1938 0.12,0.5918 0.11,0.5937 0.0997,0.5955 0.0897,0.5972 -0.4509,0.3703 -0.4561,0.3506 -0.4608,0.3302 -0.4655,0.3091 -0.4696,0.2873 -0.4735,0.2642 -0.4771,0.2398 -0.4805,0.2133 -0.4838,0.1837 -0.4871,0.1485 -0.4911,0.0966 -1.6159,0.1172 0.0556,1.024 0.0186,1.0254 -0.0186,1.0254 -0.0556,1.024 1.6159,0.1172 0.4911,0.0966 0.4871,0.1485 0.4838,0.1837 0.4805,0.2133 0.4771,0.2398 0.4735,0.2642 0.4696,0.2873 0.4655,0.3091 0.4608,0.3302 0.4561,0.3506 0.4509,0.3703 -0.0897,0.5972 -0.0997,0.5955 -0.11,0.5937 -0.12,0.5918 -0.5503,0.1938 -0.5485,0.1734 -0.546,0.1527 -0.5431,0.1313 -0.5395,0.1094 -0.5353,0.0863 -0.5304,0.0622 -0.5245,0.0361 -0.5174,0.007 -0.5085,-0.0271 -0.4946,-0.0771 -1.5585,-0.4426 -0.298,0.9813 -0.3332,0.9699 -0.3682,0.9572 -0.4025,0.9432 1.4784,0.6627 0.4285,0.2589 0.4069,0.3061 0.3918,0.338 0.3786,0.3648 0.3663,0.3885 0.3546,0.4103 0.343,0.4305 0.3316,0.4497 0.3202,0.468 0.3086,0.4854 0.297,0.5022 -0.2884,0.5305 -0.2975,0.5254 -0.3063,0.5204 -0.3152,0.515 -0.5834,-0.006 -0.5747,-0.0246 -0.5653,-0.0433 -0.5553,-0.0623 -0.5444,-0.0818 -0.5325,-0.102 -0.5197,-0.123 -0.5052,-0.1454 -0.4887,-0.1703 -0.4685,-0.1993 -0.4384,-0.2417 -1.3131,-0.949 -0.6157,0.8202 -0.6449,0.7975 -0.6733,0.7735 -0.7008,0.7487 1.1625,1.1284 0.3142,0.3898 0.2777,0.4268 0.2525,0.4517 0.231,0.4723 0.2113,0.4903 0.1929,0.5068 0.1751,0.5219 0.1578,0.536 0.1408,0.5492 0.124,0.5617 0.1074,0.5735 -0.4525,0.3998 -0.4593,0.3921 -0.4658,0.3842 -0.4723,0.3762 -0.5462,-0.2053 -0.5316,-0.2197 -0.5164,-0.234 -0.5005,-0.2485 -0.4835,-0.2631 -0.4656,-0.2779 -0.4463,-0.2933 -0.425,-0.3095 -0.4009,-0.3271 -0.3721,-0.3476 -0.3293,-0.3771 -0.9094,-1.3408 -0.859,0.5602 -0.8788,0.5288 -0.8973,0.4966 -0.9146,0.4638 0.7065,1.458 0.1619,0.4737 0.1149,0.496 0.0828,0.5108 0.0556,0.5228 0.0309,0.5331 0.008,0.5422 -0.014,0.5503 -0.035,0.5577 -0.0555,0.5642 -0.0756,0.5703 -0.0953,0.5756 -0.5619,0.2209 -0.5657,0.2114 -0.5691,0.2017 -0.5725,0.1919 -0.443,-0.3797 -0.4245,-0.3882 -0.4052,-0.3966 -0.3853,-0.4046 -0.3644,-0.4126 -0.3425,-0.4204 -0.319,-0.4283 -0.2935,-0.4362 -0.2649,-0.4445 -0.2308,-0.4539 -0.1804,-0.4669 -0.396,-1.571 -0.9988,0.2326 -1.0066,0.1963 -1.013,0.1598 -1.0182,0.123 z"
         inkscape:connector-curvature="0" />
      <g
         id="g8145"
         inkscape:label="RackGear20"
         transform="matrix(0,1,-1,0,256.38167,529.20548)" />
    </g>
    <path
       sodipodi:nodetypes="ccccccccccccccccccccccccccccccccccccccccccccccccccccccccccccccccccccccccccccccccccccccccccccccccccccccccccccccccccccccccccccccccccccccccccccccccccccccccccccccccccccccccccccccccccccccccccccccccccccccccccccccccccccccccccccccccccccccccccccccccccccccccccccccccccccccccccccccccccccccccccccccccccccccccccccccccccccccccccccccccccccccccccccccccccccccccccccccccccccccccccccccccccccccccccccccccccccccccccccccccccccccccccccccccccccccccccccccccccccccccccccccccccccccccccccccccccccccccccccccccccccccccccccccccccccccccccccccccc"
       id="path8191"
       style="fill:none;stroke:#000000;stroke-width:0.60000002"
       d="m 130.00965,87.099635 0.4813,0.007 0.4868,0.0584 0.4899,0.0939 0.4921,0.1238 0.4935,0.1508 0.4942,0.1757 0.4944,0.1995 0.4941,0.2222 0.4932,0.2441 0.4917,0.2654 0.49,0.2862 0.0163,0.5894 0.006,0.5897 -0.006,0.5897 -0.0163,0.5894 -0.49,0.2862 -0.4917,0.2654 -0.4932,0.2441 -0.4941,0.2222 -0.4944,0.1995 -0.4942,0.1757 -0.4935,0.1508 -0.4921,0.1238 -0.4899,0.0939 -0.4868,0.0584 -0.4813,0.007 -1.8221,-0.207 -0.1378,1.0234 -0.1803,1.0168 -0.2225,1.0083 -0.2643,0.9982 1.7626,0.5061 0.4421,0.1903 0.4273,0.2403 0.4168,0.2742 0.4072,0.3026 0.3983,0.3282 0.3893,0.3515 0.3805,0.3735 0.3714,0.3943 0.3622,0.414295 0.3528,0.4334 0.3431,0.4519 -0.2105,0.5508 -0.2206,0.5469 -0.2307,0.5427 -0.2407,0.5383 -0.5621,0.0769 -0.5559,0.057 -0.5491,0.0368 -0.5414,0.0162 -0.5331,-0.005 -0.5239,-0.0267 -0.5137,-0.0496 -0.502,-0.0739 -0.4885,-0.1008 -0.4721,-0.1323 -0.4472,-0.1781 -1.6042,-0.8885 -0.5189,0.8928 -0.5557,0.8703 -0.5915,0.8464 -0.6261,0.8212 1.4347,1.142 0.3357,0.345 0.3028,0.3855 0.2801,0.4128 0.2604,0.4355 0.2424,0.4556 0.2252,0.4738 0.2085,0.4906 0.1923,0.5065 0.1761,0.5213 0.1601,0.5354 0.144,0.5488 -0.4052,0.4284 -0.4131,0.4208 -0.4208,0.4131 -0.4284,0.4052 -0.5488,-0.144 -0.5354,-0.1601 -0.5213,-0.1761 -0.5065,-0.1923 -0.4906,-0.2085 -0.4738,-0.2252 -0.4556,-0.2424 -0.4355,-0.2604 -0.4128,-0.2801 -0.3855,-0.3028 -0.345,-0.3357 -1.142,-1.4347 -0.8212,0.6261 -0.8464,0.5915 -0.8703,0.5557 -0.8928,0.5189 0.8885,1.6042 0.1781,0.4472 0.1323,0.4721 0.1008,0.4885 0.0739,0.502 0.0496,0.5137 0.0267,0.5239 0.005,0.5331 -0.0162,0.5414 -0.0368,0.5491 -0.057,0.5559 -0.0769,0.5621 -0.5383,0.2407 -0.5427,0.2307 -0.5469,0.2206 -0.5508,0.2105 -0.4519,-0.3431 -0.4334,-0.3528 -0.4143,-0.3622 -0.3943,-0.3714 -0.3735,-0.3805 -0.3515,-0.3893 -0.3282,-0.3983 -0.3026,-0.4072 -0.2742,-0.4168 -0.2403,-0.4273 -0.1903,-0.4421 -0.5061,-1.7626 -0.9982,0.2643 -1.0083,0.2225 -1.0168,0.1803 -1.0234,0.1378 0.207,1.8221 -0.007,0.4813 -0.0584,0.4868 -0.0939,0.4899 -0.1238,0.4921 -0.1508,0.4935 -0.1757,0.4942 -0.1995,0.4944 -0.2222,0.4941 -0.2441,0.4932 -0.2654,0.4917 -0.2862,0.49 -0.5894,0.0163 -0.5897,0.005 -0.5897,-0.005 -0.5894,-0.0163 -0.2862,-0.49 -0.2654,-0.4917 -0.2441,-0.4932 -0.2222,-0.4941 -0.1995,-0.4944 -0.1757,-0.4942 -0.1508,-0.4935 -0.1238,-0.4921 -0.0939,-0.4899 -0.0584,-0.4868 -0.007,-0.4813 0.207,-1.8221 -1.023404,-0.1378 -1.0168,-0.1803 -1.0083,-0.2225 -0.9982,-0.2643 -0.5061,1.7626 -0.1903,0.4421 -0.2403,0.4273 -0.2742,0.4168 -0.3026,0.4072 -0.3282,0.3983 -0.3515,0.3893 -0.3735,0.3805 -0.3943,0.3714 -0.4143,0.3622 -0.4334,0.3528 -0.4519,0.3431 -0.5508,-0.2105 -0.5469,-0.2206 -0.5427,-0.2307 -0.5383,-0.2407 -0.0769,-0.5621 -0.057,-0.5559 -0.0368,-0.5491 -0.0162,-0.5414 0.0049,-0.5331 0.0267,-0.5239 0.0496,-0.5137 0.0739,-0.502 0.1008,-0.4885 0.1323,-0.4721 0.1781,-0.4472 0.8885,-1.6042 -0.8928,-0.5189 -0.8703,-0.5557 -0.8464,-0.5915 -0.8212,-0.6261 -1.142,1.4347 -0.345,0.3357 -0.3855,0.3028 -0.4128,0.2801 -0.4355,0.2604 -0.4556,0.2424 -0.4738,0.2252 -0.4906,0.2085 -0.5065,0.1923 -0.5213,0.1761 -0.5354,0.1601 -0.5488,0.144 -0.4284,-0.4052 -0.4208,-0.4131 -0.4131,-0.4208 -0.4052,-0.4284 0.144,-0.5488 0.1601,-0.5354 0.1761,-0.5213 0.1923,-0.5065 0.2085,-0.4906 0.2252,-0.4738 0.2424,-0.4556 0.2604,-0.4355 0.2801,-0.4128 0.3028,-0.3855 0.3357,-0.345 1.4347,-1.142 -0.6261,-0.8212 -0.5915,-0.8464 -0.5557,-0.8703 -0.5189,-0.8928 -1.6042,0.8885 -0.4472,0.1781 -0.4721,0.1323 -0.4885,0.1008 -0.502,0.0739 -0.5137,0.0496 -0.5239,0.0267 -0.5331,0.005 -0.5414,-0.0162 -0.5491,-0.0368 -0.5559,-0.057 -0.5621,-0.0769 -0.2407,-0.5383 -0.2307,-0.5427 -0.2206,-0.5469 -0.2105,-0.5508 0.3431,-0.4519 0.3528,-0.4334 0.3622,-0.414295 0.3714,-0.3943 0.3805,-0.3735 0.3893,-0.3515 0.3983,-0.3282 0.4072,-0.3026 0.4168,-0.2742 0.4273,-0.2403 0.4421,-0.1903 1.7626,-0.5061 -0.2643,-0.9982 -0.2225,-1.0083 -0.1803,-1.0168 -0.1378,-1.0234 -1.8221,0.207 -0.4813,-0.007 -0.4868,-0.0584 -0.4899,-0.0939 -0.4921,-0.1238 -0.4935,-0.1508 -0.4942,-0.1757 -0.4944,-0.1995 -0.4941,-0.2222 -0.4932,-0.2441 -0.4917,-0.2654 -0.49,-0.2862 -0.0163,-0.5894 -0.0055,-0.5897 0.0055,-0.5897 0.0163,-0.5894 0.49,-0.2862 0.4917,-0.2654 0.4932,-0.2441 0.4941,-0.2222 0.4944,-0.1995 0.4942,-0.1757 0.4935,-0.1508 0.4921,-0.1238 0.4899,-0.0939 0.4868,-0.0584 0.4813,-0.007 1.8221,0.207 0.1378,-1.0234 0.1803,-1.0168 0.2225,-1.0083 0.2643,-0.9982 -1.7626,-0.5061 -0.4421,-0.1903 -0.4273,-0.2403 -0.4168,-0.2742 -0.4072,-0.3026 -0.3983,-0.3282 -0.3893,-0.3515 -0.3805,-0.3735 -0.3714,-0.3943 -0.3622,-0.4143 -0.3528,-0.4334 -0.3431,-0.4519 0.2105,-0.5508 0.2206,-0.546899 0.2307,-0.5427 0.2407,-0.5383 0.5621,-0.0769 0.5559,-0.057 0.5491,-0.0368 0.5414,-0.0162 0.5331,0.005 0.5239,0.0267 0.5137,0.0496 0.502,0.0739 0.4885,0.1008 0.4721,0.1323 0.4472,0.1781 1.6042,0.888499 0.5189,-0.892799 0.5557,-0.8703 0.5915,-0.8464 0.6261,-0.8212 -1.4347,-1.142 -0.3357,-0.345 -0.3028,-0.3855 -0.2801,-0.4128 -0.2604,-0.4355 -0.2424,-0.4556 -0.2252,-0.4738 -0.2085,-0.4906 -0.1923,-0.5065 -0.1761,-0.5213 -0.1601,-0.5354 -0.144,-0.5488 0.4052,-0.4284 0.4131,-0.4208 0.4208,-0.4131 0.4284,-0.4052 0.5488,0.144 0.5354,0.1601 0.5213,0.1761 0.5065,0.1923 0.4906,0.2085 0.4738,0.2252 0.4556,0.2424 0.4355,0.2604 0.4128,0.2801 0.3855,0.3028 0.345,0.3357 1.142,1.4347 0.8212,-0.6261 0.8464,-0.5915 0.8703,-0.5557 0.8928,-0.5189 -0.8885,-1.6042 -0.1781,-0.4472 -0.1323,-0.4721 -0.1008,-0.4885 -0.0739,-0.502 -0.0496,-0.5137 -0.0267,-0.5239 -0.0049,-0.5331 0.0162,-0.5414 0.0368,-0.5491 0.057,-0.5559 0.0769,-0.5621 0.5383,-0.2407 0.5427,-0.2307 0.5469,-0.2206 0.5508,-0.2105 0.4519,0.3431 0.4334,0.3528 0.4143,0.3622 0.3943,0.3714 0.3735,0.3805 0.3515,0.3893 0.3282,0.3983 0.3026,0.4072 0.2742,0.4168 0.2403,0.4273 0.1903,0.4421 0.5061,1.7626 0.9982,-0.2643 1.0083,-0.2225 1.0168,-0.1803 1.023404,-0.1378 -0.207,-1.8221 0.007,-0.4813 0.0584,-0.4868 0.0939,-0.4899 0.1238,-0.4921 0.1508,-0.4935 0.1757,-0.4942 0.1995,-0.4944 0.2222,-0.4941 0.2441,-0.4932 0.2654,-0.4917 0.2862,-0.49 0.5894,-0.0163 0.5897,-0.0055 0.5897,0.0055 0.5894,0.0163 0.2862,0.49 0.2654,0.4917 0.2441,0.4932 0.2222,0.4941 0.1995,0.4944 0.1757,0.4942 0.1508,0.4935 0.1238,0.4921 0.0939,0.4899 0.0584,0.4868 0.007,0.4813 -0.207,1.8221 1.0234,0.1378 1.0168,0.1803 1.0083,0.2225 0.9982,0.2643 0.5061,-1.7626 0.1903,-0.4421 0.2403,-0.4273 0.2742,-0.4168 0.3026,-0.4072 0.3282,-0.3983 0.3515,-0.3893 0.3735,-0.3805 0.3943,-0.3714 0.4143,-0.3622 0.4334,-0.3528 0.4519,-0.3431 0.5508,0.2105 0.5469,0.2206 0.5427,0.2307 0.5383,0.2407 0.0769,0.5621 0.057,0.5559 0.0368,0.5491 0.0162,0.5414 -0.005,0.5331 -0.0267,0.5239 -0.0496,0.5137 -0.0739,0.502 -0.1008,0.4885 -0.1323,0.4721 -0.1781,0.4472 -0.8885,1.6042 0.8928,0.5189 0.8703,0.5557 0.8464,0.5915 0.8212,0.6261 1.142,-1.4347 0.345,-0.3357 0.3855,-0.3028 0.4128,-0.2801 0.4355,-0.2604 0.4556,-0.2424 0.4738,-0.2252 0.4906,-0.2085 0.5065,-0.1923 0.5213,-0.1761 0.5354,-0.1601 0.5488,-0.144 0.4284,0.4052 0.4208,0.4131 0.4131,0.4208 0.4052,0.4284 -0.144,0.5488 -0.1601,0.5354 -0.1761,0.5213 -0.1923,0.5065 -0.2085,0.4906 -0.2252,0.4738 -0.2424,0.4556 -0.2604,0.4355 -0.2801,0.4128 -0.3028,0.3855 -0.3357,0.345 -1.4347,1.142 0.6261,0.8212 0.5915,0.8464 0.5557,0.8703 0.5189,0.892799 1.6042,-0.888499 0.4472,-0.1781 0.4721,-0.1323 0.4885,-0.1008 0.502,-0.0739 0.5137,-0.0496 0.5239,-0.0267 0.5331,-0.005 0.5414,0.0162 0.5491,0.0368 0.5559,0.057 0.5621,0.0769 0.2407,0.5383 0.2307,0.5427 0.2206,0.546899 0.2105,0.5508 -0.3431,0.4519 -0.3528,0.4334 -0.3622,0.4143 -0.3714,0.3943 -0.3805,0.3735 -0.3893,0.3515 -0.3983,0.3282 -0.4072,0.3026 -0.4168,0.2742 -0.4273,0.2403 -0.4421,0.1903 -1.7626,0.5061 0.2643,0.9982 0.2225,1.0083 0.1803,1.0168 0.1378,1.0234 z"
       inkscape:connector-curvature="0" />
    <g
       id="g8322">
      <path
         id="path8251"
         style="fill:none;stroke:#000000;stroke-width:0.60000002"
         d="m 288.68794,129.16583 -0.2643,-0.9982 1.7626,-0.5061 0.4421,-0.1903 0.4273,-0.2403 0.4168,-0.2742 0.4072,-0.3026 0.3983,-0.3282 0.3893,-0.3515 0.3805,-0.3735 0.3714,-0.3943 0.3622,-0.4143 0.3528,-0.4334 0.3431,-0.4519 -0.2105,-0.5508 -0.2206,-0.5469 -0.2307,-0.5427 -0.2407,-0.5383 -0.5621,-0.0769 -0.5559,-0.057 -0.5491,-0.0368 -0.5414,-0.0162 -0.5331,0.005 -0.5239,0.0267 -0.5137,0.0496 -0.502,0.0739 -0.4885,0.1008 -0.4721,0.1323 -0.4472,0.1781 -1.6042,0.8885 -0.5189,-0.8928 -0.5557,-0.8703 -0.5915,-0.8464 -0.6261,-0.8212 1.4347,-1.142 0.3357,-0.345 0.3028,-0.3855 0.2801,-0.4128 0.2604,-0.4355 0.2424,-0.4556 0.2252,-0.4738 0.2085,-0.4906 0.1923,-0.5065 0.1761,-0.5213 0.1601,-0.5354 0.144,-0.5488 -0.4052,-0.4284 -0.4131,-0.4208 -0.4208,-0.4131 -0.4284,-0.4052 -0.5488,0.144 -0.5354,0.1601 -0.5213,0.1761 -0.5065,0.1923 -0.4906,0.2085 -0.4738,0.2252 -0.4556,0.2424 -0.4355,0.2604 -0.4128,0.2801 -0.3855,0.3028 -0.345,0.3357 -1.142,1.4347 -0.8212,-0.6261 -0.8464,-0.5915 -0.8703,-0.5557 -0.8928,-0.5189 0.8885,-1.6042 0.1781,-0.4472 0.1323,-0.4721 0.1008,-0.4885 0.0739,-0.502 0.0496,-0.5137 0.0267,-0.5239 0.005,-0.5331 -0.0162,-0.5414 -0.0368,-0.5491 -0.057,-0.5559 -0.0769,-0.5621 -0.5383,-0.2407 -0.5427,-0.2307 -0.5469,-0.2206 -0.5508,-0.2105 -0.4519,0.3431 -0.4334,0.3528 -0.4143,0.3622 -0.3943,0.3714 -0.3735,0.3805 -0.3515,0.3893 -0.3282,0.3983 -0.3026,0.4072 -0.2742,0.4168 -0.2403,0.4273 -0.1903,0.4421 -0.5061,1.7626 -0.9982,-0.2643 -1.0083,-0.2225 -1.0168,-0.1803 -1.0234,-0.1378 0.207,-1.8221 -0.007,-0.4813 -0.0584,-0.4868 -0.0939,-0.4899 -0.1238,-0.4921 -0.1508,-0.4935 -0.1757,-0.4942 -0.1995,-0.4944 -0.2222,-0.4941 -0.2441,-0.4932 -0.2654,-0.4917 -0.2862,-0.49 -0.5894,-0.0163 -0.5897,-0.006 -0.5897,0.006 -0.5894,0.0163 -0.2862,0.49 -0.2654,0.4917 -0.2441,0.4932 -0.2222,0.4941 -0.1995,0.4944 -0.1757,0.4942 -0.1508,0.4935 -0.1238,0.4921 -0.0939,0.4899 -0.0584,0.4868 -0.007,0.4813 0.207,1.8221 -1.02341,0.1378 -1.0168,0.1803 -1.0083,0.2225 -0.9982,0.2643 -0.5061,-1.7626 -0.1903,-0.4421 -0.2403,-0.4273 -0.2742,-0.4168 -0.3026,-0.4072 -0.3282,-0.3983 -0.3515,-0.3893 -0.3735,-0.3805 -0.3943,-0.3714 -0.4143,-0.3622 -0.4334,-0.3528 -0.4519,-0.3431 -0.5508,0.2105 -0.5469,0.2206 -0.5427,0.2307 -0.5383,0.2407 -0.0769,0.5621 -0.057,0.5559 -0.0368,0.5491 -0.0162,0.5414 0.005,0.5331 0.0267,0.5239 0.0496,0.5137 0.0739,0.502 0.1008,0.4885 0.1323,0.4721 0.1781,0.4472 0.8885,1.6042 -0.8928,0.5189 -0.8703,0.5557 -0.8464,0.5915 -0.8212,0.6261 -1.142,-1.4347 -0.345,-0.3357 -0.3855,-0.3028 -0.4128,-0.2801 -0.4355,-0.2604 -0.4556,-0.2424 -0.4738,-0.2252 -0.4906,-0.2085 -0.5065,-0.1923 -0.5213,-0.1761 -0.5354,-0.1601 -0.5488,-0.144 -0.4284,0.4052 -0.4208,0.4131 -0.4131,0.4208 -0.4052,0.4284 0.144,0.5488 0.1601,0.5354 0.1761,0.5213 0.1923,0.5065 0.2085,0.4906 0.2252,0.4738 0.2424,0.4556 0.2604,0.4355 0.2801,0.4128 0.3028,0.3855 0.3357,0.345 1.4347,1.142 -0.6261,0.8212 -0.5915,0.8464 -0.5557,0.8703 -0.5189,0.8928 -1.6042,-0.8885 -0.4472,-0.1781 -0.4721,-0.1323 -0.4885,-0.1008 -0.502,-0.0739 -0.5137,-0.0496 -0.5239,-0.0267 -0.5331,-0.005 -0.5414,0.0162 -0.5491,0.0368 -0.5559,0.057 -0.5621,0.0769 -0.2407,0.5383 -0.2307,0.5427 -0.2206,0.5469 -0.2105,0.5508 0.3431,0.4519 0.3528,0.4334 0.3622,0.4143 0.3714,0.3943 0.3805,0.3735 0.3893,0.3515 0.3983,0.3282 0.4072,0.3026 0.4168,0.2742 0.4273,0.2403 0.4421,0.1903 1.7626,0.5061 -0.2643,0.9982 -0.2225,1.0083 -0.1803,1.0168 -0.1378,1.0234 -1.8221,-0.207 -0.4813,0.007 -0.4868,0.0584 -0.4899,0.0939 -0.4921,0.1238 -0.4935,0.1508 -0.4942,0.1757 -0.4944,0.1995 -0.4941,0.2222 -0.4932,0.2441 -0.4917,0.2654 -0.49,0.2862 -0.0163,0.5894 -0.006,0.5897 0.006,0.5897 0.0163,0.5894 0.49,0.2862 0.4917,0.2654 0.4932,0.2441 0.4941,0.2222 0.4944,0.1995 0.4942,0.1757 0.4935,0.1508 0.4921,0.1238 0.4899,0.0939 0.4868,0.0584 0.4813,0.007 1.8221,-0.207 0.1378,1.0234 0.1803,1.0168 0.2225,1.0083 0.2643,0.9982 -1.7626,0.5061 -0.4421,0.1903 -0.4273,0.2403 -0.4168,0.2742 -0.4072,0.3026 -0.3983,0.3282 -0.3893,0.3515 -0.3805,0.3735 -0.3714,0.3943 -0.3622,0.4143 -0.3528,0.4334 -0.3431,0.4519 0.2105,0.5508 0.2206,0.5469 0.2307,0.5427 0.2407,0.5383 0.5621,0.0769 0.5559,0.057 0.5491,0.0368 0.5414,0.0162 0.5331,-0.005 0.5239,-0.0267 0.5137,-0.0496 0.502,-0.0739 0.4885,-0.1008 0.4721,-0.1323 0.4472,-0.1781 1.6042,-0.8885 0.5189,0.8928 0.5557,0.8703 0.5915,0.8464 0.6261,0.8212 -1.4347,1.142 -0.3357,0.345 -0.3028,0.3855 -0.2801,0.4128 -0.2604,0.4355 -0.2424,0.4556 -0.2252,0.4738 -0.2085,0.4906 -0.1923,0.5065 -0.1761,0.5213 -0.1601,0.5354 -0.144,0.5488 0.4052,0.4284 0.4131,0.4208 0.4208,0.4131 0.4284,0.4052 0.5488,-0.144 0.5354,-0.1601 0.5213,-0.1761 0.5065,-0.1923 0.4906,-0.2085 0.4738,-0.2252 0.4556,-0.2424 0.4355,-0.2604 0.4128,-0.2801 0.3855,-0.3028 0.345,-0.3357 1.142,-1.4347 0.8212,0.6261 0.8464,0.5915 0.8703,0.5557 0.8928,0.5189 -0.8885,1.6042 -0.1781,0.4472 -0.1323,0.4721 -0.1008,0.4885 -0.0739,0.502 -0.0496,0.5137 -0.0267,0.5239 -0.005,0.5331 0.0162,0.5414 0.0368,0.5491 0.057,0.5559 0.0769,0.5621 0.5383,0.2407 0.5427,0.2307 0.5469,0.2206 0.5508,0.2105 0.4519,-0.3431 0.4334,-0.3528 0.4143,-0.3622 0.3943,-0.3714 0.3735,-0.3805 0.3515,-0.3893 0.3282,-0.3983 0.3026,-0.4072 0.2742,-0.4168 0.2403,-0.4273 0.1903,-0.4421 0.5061,-1.7626 0.9982,0.2643 1.0083,0.2225 1.0168,0.1803 1.02341,0.1378 -0.207,1.8221 0.007,0.4813 0.0584,0.4868 0.0939,0.4899 0.1238,0.4921 0.1508,0.4935 0.1757,0.4942 0.1995,0.4944 0.2222,0.4941 0.2441,0.4932 0.2654,0.4917 0.2862,0.49 0.5894,0.0163 0.5897,0.005 0.5897,-0.005 0.5894,-0.0163 0.2862,-0.49 0.2654,-0.4917 0.2441,-0.4932 0.2222,-0.4941 0.1995,-0.4944 0.1757,-0.4942 0.1508,-0.4935 0.1238,-0.4921 0.0939,-0.4899 0.0584,-0.4868 0.007,-0.4813 -0.207,-1.8221 1.0234,-0.1378 1.0168,-0.1803 1.0083,-0.2225 0.9982,-0.2643 0.5061,1.7626 0.1903,0.4421 0.2403,0.4273 0.2742,0.4168 0.3026,0.4072 0.3282,0.3983 0.3515,0.3893 0.3735,0.3805 0.3943,0.3714 0.4143,0.3622 0.4334,0.3528 0.4519,0.3431 0.5508,-0.2105 0.5469,-0.2206 0.5427,-0.2307 0.5383,-0.2407 0.0769,-0.5621 0.057,-0.5559 0.0368,-0.5491 0.0162,-0.5414 -0.005,-0.5331 -0.0267,-0.5239 -0.0496,-0.5137 -0.0739,-0.502 -0.1008,-0.4885 -0.1323,-0.4721 -0.1781,-0.4472 -0.8885,-1.6042 0.8928,-0.5189 0.8703,-0.5557 0.8464,-0.5915 0.8212,-0.6261 1.142,1.4347 0.345,0.3357 0.3855,0.3028 0.4128,0.2801 0.4355,0.2604 0.4556,0.2424 0.4738,0.2252 0.4906,0.2085 0.5065,0.1923 0.5213,0.1761 0.5354,0.1601 0.5488,0.144 0.4284,-0.4052 0.4208,-0.4131 0.4131,-0.4208 0.4052,-0.4284 -0.144,-0.5488 -0.1601,-0.5354 -0.1761,-0.5213 -0.1923,-0.5065 -0.2085,-0.4906 -0.2252,-0.4738 -0.2424,-0.4556 -0.2604,-0.4355 -0.2801,-0.4128 -0.3028,-0.3855 -0.3357,-0.345 -1.4347,-1.142 0.6261,-0.8212 0.5915,-0.8464 0.5557,-0.8703 0.5189,-0.8928 1.6042,0.8885 0.4472,0.1781 0.4721,0.1323 0.4885,0.1008 0.502,0.0739 0.5137,0.0496 0.5239,0.0267 0.5331,0.005 0.5414,-0.0162 0.5491,-0.0368 0.5559,-0.057 0.5621,-0.0769 0.2407,-0.5383 0.2307,-0.5427 0.2206,-0.5469 0.2105,-0.5508 -0.3431,-0.4519 -0.3528,-0.4334 -0.3622,-0.4143 -0.3714,-0.3943 -0.3805,-0.3735 -0.3893,-0.3515 -0.3983,-0.3282 -0.4072,-0.3026 -0.4168,-0.2742 -0.4273,-0.2403 -0.4421,-0.1903 -1.7626,-0.5061 0.2643,-0.9982 0.0735,-0.57289 -11.38448,-0.0142 -0.0258,6.7941 -6.02042,0 0,-24.11022 6.02042,0 -1.2e-4,6.76783 11.55437,0.0231 z"
         inkscape:connector-curvature="0"
         sodipodi:nodetypes="cccccccccccccccccccccccccccccccccccccccccccccccccccccccccccccccccccccccccccccccccccccccccccccccccccccccccccccccccccccccccccccccccccccccccccccccccccccccccccccccccccccccccccccccccccccccccccccccccccccccccccccccccccccccccccccccccccccccccccccccccccccccccccccccccccccccccccccccccccccccccccccccccccccccccccccccccccccccccccccccccccccccccccccccccccccccccccccccccccccccccccccccccccccccccccccccccccccccccccccccccccccccccccccccccccccccccccccccccccccccccccccccccccccccccccccccccccccccccccccccccccccccc" />
      <circle
         style="opacity:1;fill:none;fill-opacity:1;stroke:#000000;stroke-width:0.35433072;stroke-linecap:round;stroke-linejoin:round;stroke-miterlimit:4;stroke-dasharray:none;stroke-opacity:1"
         id="path8253"
         cx="264.58353"
         cy="135.01292"
         r="17.716536" />
    </g>
    <g
       transform="translate(-0.29266856,-1.02434)"
       id="g8266">
      <g
         id="g8261"
         transform="translate(0.4502075,0.74871133)">
        <g
           id="g8236">
          <path
             transform="translate(0,-354.33071)"
             inkscape:connector-curvature="0"
             id="path8232"
             d="m 245.94051,435.20236 a 8.2965219,8.2965219 0 0 1 -8.29652,8.29652 8.2965219,8.2965219 0 0 1 -8.29653,-8.29652 8.2965219,8.2965219 0 0 1 8.29653,-8.29652 8.2965219,8.2965219 0 0 1 8.29652,8.29652 z"
             style="fill:none;fill-opacity:1;stroke:#000000;stroke-width:0.4148261;stroke-linecap:round;stroke-miterlimit:4;stroke-dasharray:none;stroke-opacity:1" />
        </g>
        <path
           sodipodi:nodetypes="cccccccccccccccccccccccccccccccccccccccccccccccccccccccccccccccccccccccccccccccccccccccccccccccccccccccccccccccccccccccccccccccccccccccccccccccccccccccccccccccccccccccccccccccccccccccccccccccccccccccccccccccccccccccccccccccccccccccccccccccccccccccccccccccccccccccccccccccccccccccccccccccccccccccccccccccccccccccccccccccccccccccccccccccccccccccccccccccccccccccccccccccccccccccccccccccccccccccccccccccccccccccccccccccccccccccccccccccccccccccccccccccccccccccccccccccccccccccccccccccccccccccccccccccccccccccccccccccccccccccccccccccccccccccccccccc"
           inkscape:connector-curvature="0"
           id="rect8246"
           d="m 259.22817,87.842936 -0.0258,6.794103 -6.02042,0 0,-24.11022 6.02042,0 -1.2e-4,6.76783 11.63814,2.4e-5 c 0.52385,-0.341064 0.99742,-0.653218 1.43689,-1.012923 l 0.4509,-0.3703 -0.0897,-0.5972 -0.0997,-0.5955 -0.11,-0.5937 -0.12,-0.5918 -0.5503,-0.1938 -0.5485,-0.1734 -0.546,-0.1527 -0.5431,-0.1313 -0.5395,-0.1094 -0.5353,-0.0863 -0.5304,-0.0622 -0.5245,-0.0361 -0.5174,-0.007 -0.5085,0.0271 -0.4946,0.0771 -1.5585,0.4426 -0.298,-0.9813 -0.3332,-0.9699 -0.3682,-0.9572 -0.4025,-0.9432 1.4784,-0.6627 0.4285,-0.2589 0.4069,-0.3061 0.3918,-0.338 0.3786,-0.3648 0.3663,-0.3885 0.3546,-0.4103 0.343,-0.4305 0.3316,-0.4497 0.3202,-0.468 0.3086,-0.4854 0.29701,-0.5022 -0.28841,-0.5305 -0.2975,-0.5254 -0.3063,-0.5204 -0.3152,-0.515 -0.5834,0.006 -0.5747,0.0246 -0.5653,0.0433 -0.5553,0.0623 -0.5444,0.0818 -0.5325,0.102 -0.5197,0.123 -0.5052,0.1454 -0.4887,0.1703 -0.4685,0.1993 -0.4384,0.2417 -1.3131,0.949 -0.6157,-0.8202 -0.6449,-0.7975 -0.6733,-0.7735 -0.7008,-0.7487 1.1625,-1.1284 0.3142,-0.3898 0.2777,-0.4268 0.2525,-0.4517 0.231,-0.4723 0.2113,-0.4903 0.1929,-0.5068 0.1751,-0.5219 0.1578,-0.536 0.1408,-0.5492 0.124,-0.5617 0.1074,-0.5735 -0.4525,-0.3998 -0.45929,-0.3921 -0.4658,-0.3842 -0.47231,-0.3762 -0.5462,0.2053 -0.5316,0.2197 -0.5164,0.234 -0.50049,0.2485 -0.4835,0.2631 -0.4656,0.2779 -0.4463,0.2933 -0.42501,0.3095 -0.4009,0.3271 -0.3721,0.3476 -0.32929,0.3771 -0.9094,1.3408 -0.85901,-0.5602 -0.8788,-0.5288 -0.8973,-0.4966 -0.9146,-0.4638 0.7065,-1.458 0.1619,-0.4737 0.1149,-0.496 0.0828,-0.5108 0.0556,-0.5228 0.0309,-0.5331 0.008,-0.5422 -0.014,-0.5503 -0.035,-0.5577 -0.0555,-0.5642 -0.0756,-0.5703 -0.0953,-0.5756 -0.5619,-0.2209 -0.5657,-0.2114 -0.5691,-0.2017 -0.5725,-0.1919 -0.443,0.3797 -0.4245,0.3882 -0.4052,0.3966 -0.3853,0.4046 -0.3644,0.4126 -0.3425,0.4204 -0.319,0.4283 -0.2935,0.4362 -0.2649,0.4445 -0.2308,0.4539 -0.18039,0.4669 -0.396,1.571 -0.9988,-0.2326 -1.0066,-0.1963 -1.013,-0.1598 -1.0182,-0.123 0.1653,-1.6117 -0.01,-0.5005 -0.0616,-0.5055 -0.0969,-0.5083 -0.1267,-0.5103 -0.1532,-0.5115 -0.1781,-0.5122 -0.2013,-0.5123 -0.2236,-0.512 -0.2452,-0.5113 -0.266,-0.51 -0.2865,-0.5083 -0.6036,-0.0154 -0.6038,-0.005 -0.6038,0.005 -0.6036,0.0154 -0.2865,0.5083 -0.266,0.51 -0.2452,0.5113 -0.2236,0.512 -0.2013,0.5123 -0.1781,0.5122 -0.1532,0.5115 -0.1267,0.5103 -0.0969,0.5083 -0.0616,0.5055 -0.01,0.5005 0.1653,1.6117 -1.0182,0.123 -1.013,0.1598 -1.0066,0.1963 -0.9988,0.2326 -0.396,-1.571 -0.1804,-0.4669 -0.2308,-0.4539 -0.2649,-0.4445 -0.2935,-0.4362 -0.319,-0.4283 -0.3425,-0.4204 -0.3644,-0.4126 -0.3853,-0.4046 -0.4052,-0.3966 -0.4245,-0.3882 -0.443,-0.3797 -0.5725,0.1919 -0.5691,0.2017 -0.5657,0.2114 -0.5619,0.2209 -0.0953,0.5756 -0.0756,0.5703 -0.0555,0.5642 -0.035,0.5577 -0.014,0.5503 0.008,0.5422 0.0309,0.5331 0.0556,0.5228 0.0828,0.5108 0.1149,0.496 0.1619,0.4737 0.7065,1.458 -0.9146,0.4638 -0.8973,0.4966 -0.8788,0.5288 -0.859,0.5602 -0.9094,-1.3408 -0.3293,-0.3771 -0.3721,-0.3476 -0.4009,-0.3271 -0.425,-0.3095 -0.4463,-0.2933 -0.4656,-0.2779 -0.4835,-0.2631 -0.5005,-0.2485 -0.5164,-0.234 -0.5316,-0.2197 -0.5462,-0.2053 -0.4723,0.3762 -0.4658,0.3842 -0.4593,0.3921 -0.4525,0.3998 0.1074,0.5735 0.124,0.5617 0.1408,0.5492 0.1578,0.536 0.1751,0.5219 0.1929,0.5068 0.2113,0.4903 0.231,0.4723 0.2525,0.4517 0.2777,0.4268 0.3142,0.3898 1.1625,1.1284 -0.7008,0.7487 -0.6733,0.7735 -0.6449,0.7975 -0.6157,0.8202 -1.3131,-0.949 -0.4384,-0.2417 -0.4685,-0.1993 -0.4887,-0.1703 -0.5052,-0.1454 -0.5197,-0.123 -0.5325,-0.102 -0.5444,-0.0818 -0.5553,-0.0623 -0.5653,-0.0433 -0.5747,-0.0246 -0.5834,-0.006 -0.3152,0.515 -0.3063,0.5204 -0.2975,0.5254 -0.2884,0.5305 0.297,0.5022 0.3086,0.4854 0.3202,0.468 0.3316,0.4497 0.343,0.4305 0.3546,0.4103 0.3663,0.3885 0.3786,0.3648 0.3918,0.338 0.4069,0.3061 0.4285,0.2589 1.4784,0.6627 -0.4025,0.9432 -0.3682,0.9572 -0.3332,0.9699 -0.298,0.9813 -1.5585,-0.4426 -0.4946,-0.0771 -0.5085,-0.0271 -0.5174,0.007 -0.5245,0.0361 -0.5304,0.0622 -0.5353,0.0863 -0.5395,0.1094 -0.5431,0.1313 -0.546,0.1527 -0.5485,0.1734 -0.5503,0.1938 -0.12,0.5918 -0.11,0.5937 -0.0997,0.5955 -0.0897,0.5972 0.4509,0.3703 0.4561,0.3506 0.4608,0.3302 0.4655,0.3091 0.4696,0.2873 0.4735,0.2642 0.4771,0.2398 0.4805,0.2133 0.4838,0.1837 0.4871,0.1485 0.4911,0.0966 1.6159,0.1172 -0.0556,1.024 -0.0186,1.0254 0.0186,1.0254 0.0556,1.024 -1.6159,0.1172 -0.4911,0.0966 -0.4871,0.1485 -0.4838,0.1837 -0.4805,0.2133 -0.4771,0.2398 -0.4735,0.2642 -0.4696,0.2873 -0.4655,0.3091 -0.4608,0.3302 -0.4561,0.3506 -0.4509,0.3703 0.0897,0.5972 0.0997,0.5955 0.11,0.5937 0.12,0.5918 0.5503,0.1938 0.5485,0.1734 0.546,0.1527 0.5431,0.1313 0.5395,0.1094 0.5353,0.0863 0.5304,0.0622 0.5245,0.0361 0.5174,0.007 0.5085,-0.0271 0.4946,-0.0771 1.5585,-0.4426 0.298,0.9813 0.3332,0.9699 0.3682,0.9572 0.4025,0.9432 -1.4784,0.6627 -0.4285,0.2589 -0.4069,0.3061 -0.3918,0.338 -0.3786,0.3648 -0.3663,0.3885 -0.3546,0.4103 -0.343,0.4305 -0.3316,0.4497 -0.3202,0.468 -0.3086,0.4854 -0.297,0.5022 0.2884,0.5305 0.2975,0.5254 0.3063,0.5204 0.3152,0.515 0.5834,-0.006 0.5747,-0.0246 0.5653,-0.0433 0.5553,-0.0623 0.5444,-0.0818 0.5325,-0.102 0.5197,-0.123 0.5052,-0.1454 0.4887,-0.1703 0.4685,-0.1993 0.4384,-0.2417 1.3131,-0.949 0.6157,0.8202 0.6449,0.7975 0.6733,0.7735 0.7008,0.7487 -1.1625,1.1284 -0.3142,0.3898 -0.2777,0.4268 -0.2525,0.4517 -0.231,0.4723 -0.2113,0.4903 -0.1929,0.5068 -0.1751,0.5219 -0.1578,0.536 -0.1408,0.5492 -0.124,0.5617 -0.1074,0.5735 0.4525,0.3998 0.4593,0.3921 0.4658,0.3842 0.4723,0.3762 0.5462,-0.2053 0.5316,-0.2197 0.5164,-0.234 0.5005,-0.2485 0.4835,-0.2631 0.4656,-0.2779 0.4463,-0.2933 0.425,-0.3095 0.4009,-0.3271 0.3721,-0.3476 0.3293,-0.3771 0.9094,-1.3408 0.859,0.5602 0.8788,0.5288 0.8973,0.4966 0.9146,0.4638 -0.7065,1.458 -0.1619,0.4737 -0.1149,0.496 -0.0828,0.5108 -0.0556,0.5228 -0.0309,0.5331 -0.008,0.5422 0.014,0.5503 0.035,0.5577 0.0555,0.5642 0.0756,0.5703 0.0953,0.5756 0.5619,0.2209 0.5657,0.2114 0.5691,0.2017 0.5725,0.1919 0.443,-0.3797 0.4245,-0.3882 0.4052,-0.3966 0.3853,-0.4046 0.3644,-0.4126 0.3425,-0.4204 0.319,-0.4283 0.2935,-0.4362 0.2649,-0.4445 0.2308,-0.4539 0.1804,-0.4669 0.396,-1.571 0.9988,0.2326 1.0066,0.1963 1.013,0.1598 1.0182,0.123 -0.1653,1.6117 0.01,0.5005 0.0616,0.5055 0.0969,0.5083 0.1267,0.5103 0.1532,0.5115 0.1781,0.5122 0.2013,0.5123 0.2236,0.512 0.2452,0.5113 0.266,0.51 0.2865,0.5083 0.6036,0.0154 0.6038,0.005 0.6038,-0.005 0.6036,-0.0154 0.2865,-0.5083 0.266,-0.51 0.2452,-0.5113 0.2236,-0.512 0.2013,-0.5123 0.1781,-0.5122 0.1532,-0.5115 0.1267,-0.5103 0.0969,-0.5083 0.0616,-0.5055 0.01,-0.5005 -0.1653,-1.6117 1.0182,-0.123 1.013,-0.1598 1.0066,-0.1963 0.9988,-0.2326 0.396,1.571 0.18039,0.4669 0.2308,0.4539 0.2649,0.4445 0.2935,0.4362 0.319,0.4283 0.3425,0.4204 0.3644,0.4126 0.3853,0.4046 0.4052,0.3966 0.4245,0.3882 0.443,0.3797 0.5725,-0.1919 0.5691,-0.2017 0.5657,-0.2114 0.5619,-0.2209 0.0953,-0.5756 0.0756,-0.5703 0.0555,-0.5642 0.035,-0.5577 0.014,-0.5503 -0.008,-0.5422 -0.0309,-0.5331 -0.0556,-0.5228 -0.0828,-0.5108 -0.1149,-0.496 -0.1619,-0.4737 -0.7065,-1.458 0.9146,-0.4638 0.8973,-0.4966 0.8788,-0.5288 0.85901,-0.5602 0.9094,1.3408 0.32929,0.3771 0.3721,0.3476 0.4009,0.3271 0.42501,0.3095 0.4463,0.2933 0.4656,0.2779 0.4835,0.2631 0.50049,0.2485 0.5164,0.234 0.5316,0.2197 0.5462,0.2053 0.47231,-0.3762 0.4658,-0.3842 0.45929,-0.3921 0.4525,-0.3998 -0.1074,-0.5735 -0.124,-0.5617 -0.1408,-0.5492 -0.1578,-0.536 -0.1751,-0.5219 -0.1929,-0.5068 -0.2113,-0.4903 -0.231,-0.4723 -0.2525,-0.4517 -0.2777,-0.4268 -0.3142,-0.3898 -1.1625,-1.1284 0.7008,-0.7487 0.6733,-0.7735 0.6449,-0.7975 0.6157,-0.8202 1.3131,0.949 0.4384,0.2417 0.4685,0.1993 0.4887,0.1703 0.5052,0.1454 0.5197,0.123 0.5325,0.102 0.5444,0.0818 0.5553,0.0623 0.5653,0.0433 0.5747,0.0246 0.5834,0.006 0.3152,-0.515 0.3063,-0.5204 0.2975,-0.5254 0.28841,-0.5305 -0.29701,-0.5022 -0.3086,-0.4854 -0.3202,-0.468 -0.3316,-0.4497 -0.343,-0.4305 -0.3546,-0.4103 -0.3663,-0.3885 -0.3786,-0.3648 -0.3918,-0.338 -0.4069,-0.3061 -0.4285,-0.2589 -1.4784,-0.6627 0.4025,-0.9432 0.3682,-0.9572 0.3332,-0.9699 0.25608,-1.746685 z"
           style="opacity:1;fill:none;fill-opacity:1;stroke:#000000;stroke-width:0.35433072;stroke-linecap:round;stroke-linejoin:round;stroke-miterlimit:4;stroke-dasharray:none;stroke-opacity:1" />
      </g>
      <circle
         r="17.716536"
         cy="81.620361"
         cx="238.09419"
         id="circle8255"
         style="opacity:1;fill:none;fill-opacity:1;stroke:#000000;stroke-width:0.35433072;stroke-linecap:round;stroke-linejoin:round;stroke-miterlimit:4;stroke-dasharray:none;stroke-opacity:1" />
    </g>
  </g>
  <path
     style="fill:none;fill-opacity:1;stroke:#000000;stroke-width:0.4148261;stroke-linecap:round;stroke-miterlimit:4;stroke-dasharray:none;stroke-opacity:1"
     d="m 693.72641,80.59602 a 8.2965219,8.2965219 0 0 1 -8.29652,8.29652 8.2965219,8.2965219 0 0 1 -8.29653,-8.29652 8.2965219,8.2965219 0 0 1 8.29653,-8.29652 8.2965219,8.2965219 0 0 1 8.29652,8.29652 z"
     id="path8279"
     inkscape:connector-curvature="0" />
  <path
     style="opacity:1;fill:none;fill-opacity:1;stroke:#000000;stroke-width:0.35433072;stroke-linecap:round;stroke-linejoin:round;stroke-miterlimit:4;stroke-dasharray:none;stroke-opacity:1"
     d="m 692.47874,87.574436 -5.64209,-0.0071 -0.0258,6.794103 -6.02042,0 0,-24.11022 6.02042,0 -1.2e-4,6.76783 11.63814,2.4e-5"
     id="path8297"
     inkscape:connector-curvature="0" />
  <path
     style="opacity:1;fill:none;fill-opacity:1;stroke:#000000;stroke-width:0.35433072;stroke-linecap:round;stroke-linejoin:round;stroke-miterlimit:4;stroke-dasharray:none;stroke-opacity:1"
     d="m 718.72976,77.019073 c 0.52385,-0.341064 0.99742,-0.653218 1.43689,-1.012923 l 0.4509,-0.3703 -0.0897,-0.5972 -0.0997,-0.5955 -0.11,-0.5937 -0.12,-0.5918 -0.5503,-0.1938 -0.5485,-0.1734 -0.546,-0.1527 -0.5431,-0.1313 -0.5395,-0.1094 -0.5353,-0.0863 -0.5304,-0.0622 -0.5245,-0.0361 -0.5174,-0.007 -0.5085,0.0271 -0.4946,0.0771 -1.5585,0.4426 -0.298,-0.9813 -0.3332,-0.9699 -0.3682,-0.9572 -0.4025,-0.9432 1.4784,-0.6627 0.4285,-0.2589 0.4069,-0.3061 0.3918,-0.338 0.3786,-0.3648 0.3663,-0.3885 0.3546,-0.4103 0.343,-0.4305 0.3316,-0.4497 0.3202,-0.468 0.3086,-0.4854 0.29701,-0.5022 -0.28841,-0.5305 -0.2975,-0.5254 -0.3063,-0.5204 -0.3152,-0.515 -0.5834,0.006 -0.5747,0.0246 -0.5653,0.0433 -0.5553,0.0623 -0.5444,0.0818 -0.5325,0.102 -0.5197,0.123 -0.5052,0.1454 -0.4887,0.1703 -0.4685,0.1993 -0.4384,0.2417 -1.3131,0.949 -0.6157,-0.8202 -0.6449,-0.7975 -0.6733,-0.7735 -0.7008,-0.7487 1.1625,-1.1284 0.3142,-0.3898 0.2777,-0.4268 0.2525,-0.4517 0.231,-0.4723 0.2113,-0.4903 0.1929,-0.5068 0.1751,-0.5219 0.1578,-0.536 0.1408,-0.5492 0.124,-0.5617 0.1074,-0.5735 -0.4525,-0.3998 -0.45929,-0.3921 -0.4658,-0.3842 -0.47231,-0.3762 -0.5462,0.2053 -0.5316,0.2197 -0.5164,0.234 -0.50049,0.2485 -0.4835,0.2631 -0.4656,0.2779 -0.4463,0.2933 -0.42501,0.3095 -0.4009,0.3271 -0.3721,0.3476 -0.32929,0.3771 -0.9094,1.3408 -0.85901,-0.5602 -0.8788,-0.5288 -0.8973,-0.4966 -0.9146,-0.4638 0.7065,-1.458 0.1619,-0.4737 0.1149,-0.496 0.0828,-0.5108 0.0556,-0.5228 0.0309,-0.5331 0.008,-0.5422 -0.014,-0.5503 -0.035,-0.5577 -0.0555,-0.5642 -0.0756,-0.5703 -0.0953,-0.5756 -0.5619,-0.2209 -0.5657,-0.2114 -0.5691,-0.2017 -0.5725,-0.1919 -0.443,0.3797 -0.4245,0.3882 -0.4052,0.3966 -0.3853,0.4046 -0.3644,0.4126 -0.3425,0.4204 -0.319,0.4283 -0.2935,0.4362 -0.2649,0.4445 -0.2308,0.4539 -0.18039,0.4669 -0.396,1.571 -0.9988,-0.2326 -1.0066,-0.1963 -1.013,-0.1598 -1.0182,-0.123 0.1653,-1.6117 -0.01,-0.5005 -0.0616,-0.5055 -0.0969,-0.5083 -0.1267,-0.5103 -0.1532,-0.5115 -0.1781,-0.5122 -0.2013,-0.5123 -0.2236,-0.512 -0.2452,-0.5113 -0.266,-0.51 -0.2865,-0.5083 -0.6036,-0.0154 -0.6038,-0.005 -0.6038,0.005 -0.6036,0.0154 -0.2865,0.5083 -0.266,0.51 -0.2452,0.5113 -0.2236,0.512 -0.2013,0.5123 -0.1781,0.5122 -0.1532,0.5115 -0.1267,0.5103 -0.0969,0.5083 -0.0616,0.5055 -0.01,0.5005 0.1653,1.6117 -1.0182,0.123 -1.013,0.1598 -1.0066,0.1963 -0.9988,0.2326 -0.396,-1.571 -0.1804,-0.4669 -0.2308,-0.4539 -0.2649,-0.4445 -0.2935,-0.4362 -0.319,-0.4283 -0.3425,-0.4204 -0.3644,-0.4126 -0.3853,-0.4046 -0.4052,-0.3966 -0.4245,-0.3882 -0.443,-0.3797 -0.5725,0.1919 -0.5691,0.2017 -0.5657,0.2114 -0.5619,0.2209 -0.0953,0.5756 -0.0756,0.5703 -0.0555,0.5642 -0.035,0.5577 -0.014,0.5503 0.008,0.5422 0.0309,0.5331 0.0556,0.5228 0.0828,0.5108 0.1149,0.496 0.1619,0.4737 0.7065,1.458 -0.9146,0.4638 -0.8973,0.4966 -0.8788,0.5288 -0.859,0.5602 -0.9094,-1.3408 -0.3293,-0.3771 -0.3721,-0.3476 -0.4009,-0.3271 -0.425,-0.3095 -0.4463,-0.2933 -0.4656,-0.2779 -0.4835,-0.2631 -0.5005,-0.2485 -0.5164,-0.234 -0.5316,-0.2197 -0.5462,-0.2053 -0.4723,0.3762 -0.4658,0.3842 -0.4593,0.3921 -0.4525,0.3998 0.1074,0.5735 0.124,0.5617 0.1408,0.5492 0.1578,0.536 0.1751,0.5219 0.1929,0.5068 0.2113,0.4903 0.231,0.4723 0.2525,0.4517 0.2777,0.4268 0.3142,0.3898 1.1625,1.1284 -0.7008,0.7487 -0.6733,0.7735 -0.6449,0.7975 -0.6157,0.8202 -1.3131,-0.949 -0.4384,-0.2417 -0.4685,-0.1993 -0.4887,-0.1703 -0.5052,-0.1454 -0.5197,-0.123 -0.5325,-0.102 -0.5444,-0.0818 -0.5553,-0.0623 -0.5653,-0.0433 -0.5747,-0.0246 -0.5834,-0.006 -0.3152,0.515 -0.3063,0.5204 -0.2975,0.5254 -0.2884,0.5305 0.297,0.5022 0.3086,0.4854 0.3202,0.468 0.3316,0.4497 0.343,0.4305 0.3546,0.4103 0.3663,0.3885 0.3786,0.3648 0.3918,0.338 0.4069,0.3061 0.4285,0.2589 1.4784,0.6627 -0.4025,0.9432 -0.3682,0.9572 -0.3332,0.9699 -0.298,0.9813 -1.5585,-0.4426 -0.4946,-0.0771 -0.5085,-0.0271 -0.5174,0.007 -0.5245,0.0361 -0.5304,0.0622 -0.5353,0.0863 -0.5395,0.1094 -0.5431,0.1313 -0.546,0.1527 -0.5485,0.1734 -0.5503,0.1938 -0.12,0.5918 -0.11,0.5937 -0.0997,0.5955 -0.0897,0.5972 0.4509,0.3703 0.4561,0.3506 0.4608,0.3302 0.4655,0.3091 0.4696,0.2873 0.4735,0.2642 0.4771,0.2398 0.4805,0.2133 0.4838,0.1837 0.4871,0.1485 0.4911,0.0966 1.6159,0.1172 -0.0556,1.024 -0.0186,1.0254 0.0186,1.0254 0.0556,1.024 -1.6159,0.1172 -0.4911,0.0966 -0.4871,0.1485 -0.4838,0.1837 -0.4805,0.2133 -0.4771,0.2398 -0.4735,0.2642 -0.4696,0.2873 -0.4655,0.3091 -0.4608,0.3302 -0.4561,0.3506 -0.4509,0.3703 0.0897,0.5972 0.0997,0.5955 0.11,0.5937 0.12,0.5918 0.5503,0.1938 0.5485,0.1734 0.546,0.1527 0.5431,0.1313 0.5395,0.1094 0.5353,0.0863 0.5304,0.0622 0.5245,0.0361 0.5174,0.007 0.5085,-0.0271 0.4946,-0.0771 1.5585,-0.4426 0.298,0.9813 0.3332,0.9699 0.3682,0.9572 0.4025,0.9432 -1.4784,0.6627 -0.4285,0.2589 -0.4069,0.3061 -0.3918,0.338 -0.3786,0.3648 -0.3663,0.3885 -0.3546,0.4103 -0.343,0.4305 -0.3316,0.4497 -0.3202,0.468 -0.3086,0.4854 -0.297,0.5022 0.2884,0.5305 0.2975,0.5254 0.3063,0.5204 0.3152,0.515 0.5834,-0.006 0.5747,-0.0246 0.5653,-0.0433 0.5553,-0.0623 0.5444,-0.0818 0.5325,-0.102 0.5197,-0.123 0.5052,-0.1454 0.4887,-0.1703 0.4685,-0.1993 0.4384,-0.2417 1.3131,-0.949 0.6157,0.8202 0.6449,0.7975 0.6733,0.7735 0.7008,0.7487 -1.1625,1.1284 -0.3142,0.3898 -0.2777,0.4268 -0.2525,0.4517 -0.231,0.4723 -0.2113,0.4903 -0.1929,0.5068 -0.1751,0.5219 -0.1578,0.536 -0.1408,0.5492 -0.124,0.5617 -0.1074,0.5735 0.4525,0.3998 0.4593,0.3921 0.4658,0.3842 0.4723,0.3762 0.5462,-0.2053 0.5316,-0.2197 0.5164,-0.234 0.5005,-0.2485 0.4835,-0.2631 0.4656,-0.2779 0.4463,-0.2933 0.425,-0.3095 0.4009,-0.3271 0.3721,-0.3476 0.3293,-0.3771 0.9094,-1.3408 0.859,0.5602 0.8788,0.5288 0.8973,0.4966 0.9146,0.4638 -0.7065,1.458 -0.1619,0.4737 -0.1149,0.496 -0.0828,0.5108 -0.0556,0.5228 -0.0309,0.5331 -0.008,0.5422 0.014,0.5503 0.035,0.5577 0.0555,0.5642 0.0756,0.5703 0.0953,0.5756 0.5619,0.2209 0.5657,0.2114 0.5691,0.2017 0.5725,0.1919 0.443,-0.3797 0.4245,-0.3882 0.4052,-0.3966 0.3853,-0.4046 0.3644,-0.4126 0.3425,-0.4204 0.319,-0.4283 0.2935,-0.4362 0.2649,-0.4445 0.2308,-0.4539 0.1804,-0.4669 0.396,-1.571 0.9988,0.2326 1.0066,0.1963 1.013,0.1598 1.0182,0.123 -0.1653,1.6117 0.01,0.5005 0.0616,0.5055 0.0969,0.5083 0.1267,0.5103 0.1532,0.5115 0.1781,0.5122 0.2013,0.5123 0.2236,0.512 0.2452,0.5113 0.266,0.51 0.2865,0.5083 0.6036,0.0154 0.6038,0.005 0.6038,-0.005 0.6036,-0.0154 0.2865,-0.5083 0.266,-0.51 0.2452,-0.5113 0.2236,-0.512 0.2013,-0.5123 0.1781,-0.5122 0.1532,-0.5115 0.1267,-0.5103 0.0969,-0.5083 0.0616,-0.5055 0.01,-0.5005 -0.1653,-1.6117 1.0182,-0.123 1.013,-0.1598 1.0066,-0.1963 0.9988,-0.2326 0.396,1.571 0.18039,0.4669 0.2308,0.4539 0.2649,0.4445 0.2935,0.4362 0.319,0.4283 0.3425,0.4204 0.3644,0.4126 0.3853,0.4046 0.4052,0.3966 0.4245,0.3882 0.443,0.3797 0.5725,-0.1919 0.5691,-0.2017 0.5657,-0.2114 0.5619,-0.2209 0.0953,-0.5756 0.0756,-0.5703 0.0555,-0.5642 0.035,-0.5577 0.014,-0.5503 -0.008,-0.5422 -0.0309,-0.5331 -0.0556,-0.5228 -0.0828,-0.5108 -0.1149,-0.496 -0.1619,-0.4737 -0.7065,-1.458 0.9146,-0.4638 0.8973,-0.4966 0.8788,-0.5288 0.85901,-0.5602 0.9094,1.3408 0.32929,0.3771 0.3721,0.3476 0.4009,0.3271 0.42501,0.3095 0.4463,0.2933 0.4656,0.2779 0.4835,0.2631 0.50049,0.2485 0.5164,0.234 0.5316,0.2197 0.5462,0.2053 0.47231,-0.3762 0.4658,-0.3842 0.45929,-0.3921 0.4525,-0.3998 -0.1074,-0.5735 -0.124,-0.5617 -0.1408,-0.5492 -0.1578,-0.536 -0.1751,-0.5219 -0.1929,-0.5068 -0.2113,-0.4903 -0.231,-0.4723 -0.2525,-0.4517 -0.2777,-0.4268 -0.3142,-0.3898 -1.1625,-1.1284 0.7008,-0.7487 0.6733,-0.7735 0.6449,-0.7975 0.6157,-0.8202 1.3131,0.949 0.4384,0.2417 0.4685,0.1993 0.4887,0.1703 0.5052,0.1454 0.5197,0.123 0.5325,0.102 0.5444,0.0818 0.5553,0.0623 0.5653,0.0433 0.5747,0.0246 0.5834,0.006 0.3152,-0.515 0.3063,-0.5204 0.2975,-0.5254 0.28841,-0.5305 -0.29701,-0.5022 -0.3086,-0.4854 -0.3202,-0.468 -0.3316,-0.4497 -0.343,-0.4305 -0.3546,-0.4103 -0.3663,-0.3885 -0.3786,-0.3648 -0.3918,-0.338 -0.4069,-0.3061 -0.4285,-0.2589 -1.4784,-0.6627 0.4025,-0.9432 0.3682,-0.9572 0.3332,-0.9699 0.25608,-1.746685"
     id="path8281"
     inkscape:connector-curvature="0" />
  <circle
     style="opacity:1;fill:none;fill-opacity:1;stroke:#000000;stroke-width:0.35433072;stroke-linecap:round;stroke-linejoin:round;stroke-miterlimit:4;stroke-dasharray:none;stroke-opacity:1"
     id="circle8283"
     cx="685.42987"
     cy="80.596024"
     r="17.716536" />
  <path
     inkscape:connector-curvature="0"
     id="path8289"
     d="m 750.52336,119.43269 10.08771,0 0,20.98767 -10.08771,0 z"
     style="fill:none;fill-opacity:1;stroke:#000000;stroke-width:0.5422048;stroke-linecap:round;stroke-miterlimit:4;stroke-dasharray:none;stroke-opacity:1" />
  <circle
     r="17.716536"
     cy="147.92877"
     cx="120.03293"
     id="circle8291"
     style="opacity:1;fill:none;fill-opacity:1;stroke:#000000;stroke-width:0.35433072;stroke-linecap:round;stroke-linejoin:round;stroke-miterlimit:4;stroke-dasharray:none;stroke-opacity:1" />
  <circle
     style="opacity:1;fill:none;fill-opacity:1;stroke:#000000;stroke-width:0.35433072;stroke-linecap:round;stroke-linejoin:round;stroke-miterlimit:4;stroke-dasharray:none;stroke-opacity:1"
     id="circle8293"
     cx="103.54275"
     cy="90.105484"
     r="17.716536" />
  <g
     id="g8330"
     transform="translate(219.81204,-74.501252)">
    <path
       id="path8332"
       style="fill:none;stroke:#000000;stroke-width:0.60000002"
       d="m 288.68794,129.16583 -0.2643,-0.9982 1.7626,-0.5061 0.4421,-0.1903 0.4273,-0.2403 0.4168,-0.2742 0.4072,-0.3026 0.3983,-0.3282 0.3893,-0.3515 0.3805,-0.3735 0.3714,-0.3943 0.3622,-0.4143 0.3528,-0.4334 0.3431,-0.4519 -0.2105,-0.5508 -0.2206,-0.5469 -0.2307,-0.5427 -0.2407,-0.5383 -0.5621,-0.0769 -0.5559,-0.057 -0.5491,-0.0368 -0.5414,-0.0162 -0.5331,0.005 -0.5239,0.0267 -0.5137,0.0496 -0.502,0.0739 -0.4885,0.1008 -0.4721,0.1323 -0.4472,0.1781 -1.6042,0.8885 -0.5189,-0.8928 -0.5557,-0.8703 -0.5915,-0.8464 -0.6261,-0.8212 1.4347,-1.142 0.3357,-0.345 0.3028,-0.3855 0.2801,-0.4128 0.2604,-0.4355 0.2424,-0.4556 0.2252,-0.4738 0.2085,-0.4906 0.1923,-0.5065 0.1761,-0.5213 0.1601,-0.5354 0.144,-0.5488 -0.4052,-0.4284 -0.4131,-0.4208 -0.4208,-0.4131 -0.4284,-0.4052 -0.5488,0.144 -0.5354,0.1601 -0.5213,0.1761 -0.5065,0.1923 -0.4906,0.2085 -0.4738,0.2252 -0.4556,0.2424 -0.4355,0.2604 -0.4128,0.2801 -0.3855,0.3028 -0.345,0.3357 -1.142,1.4347 -0.8212,-0.6261 -0.8464,-0.5915 -0.8703,-0.5557 -0.8928,-0.5189 0.8885,-1.6042 0.1781,-0.4472 0.1323,-0.4721 0.1008,-0.4885 0.0739,-0.502 0.0496,-0.5137 0.0267,-0.5239 0.005,-0.5331 -0.0162,-0.5414 -0.0368,-0.5491 -0.057,-0.5559 -0.0769,-0.5621 -0.5383,-0.2407 -0.5427,-0.2307 -0.5469,-0.2206 -0.5508,-0.2105 -0.4519,0.3431 -0.4334,0.3528 -0.4143,0.3622 -0.3943,0.3714 -0.3735,0.3805 -0.3515,0.3893 -0.3282,0.3983 -0.3026,0.4072 -0.2742,0.4168 -0.2403,0.4273 -0.1903,0.4421 -0.5061,1.7626 -0.9982,-0.2643 -1.0083,-0.2225 -1.0168,-0.1803 -1.0234,-0.1378 0.207,-1.8221 -0.007,-0.4813 -0.0584,-0.4868 -0.0939,-0.4899 -0.1238,-0.4921 -0.1508,-0.4935 -0.1757,-0.4942 -0.1995,-0.4944 -0.2222,-0.4941 -0.2441,-0.4932 -0.2654,-0.4917 -0.2862,-0.49 -0.5894,-0.0163 -0.5897,-0.006 -0.5897,0.006 -0.5894,0.0163 -0.2862,0.49 -0.2654,0.4917 -0.2441,0.4932 -0.2222,0.4941 -0.1995,0.4944 -0.1757,0.4942 -0.1508,0.4935 -0.1238,0.4921 -0.0939,0.4899 -0.0584,0.4868 -0.007,0.4813 0.207,1.8221 -1.02341,0.1378 -1.0168,0.1803 -1.0083,0.2225 -0.9982,0.2643 -0.5061,-1.7626 -0.1903,-0.4421 -0.2403,-0.4273 -0.2742,-0.4168 -0.3026,-0.4072 -0.3282,-0.3983 -0.3515,-0.3893 -0.3735,-0.3805 -0.3943,-0.3714 -0.4143,-0.3622 -0.4334,-0.3528 -0.4519,-0.3431 -0.5508,0.2105 -0.5469,0.2206 -0.5427,0.2307 -0.5383,0.2407 -0.0769,0.5621 -0.057,0.5559 -0.0368,0.5491 -0.0162,0.5414 0.005,0.5331 0.0267,0.5239 0.0496,0.5137 0.0739,0.502 0.1008,0.4885 0.1323,0.4721 0.1781,0.4472 0.8885,1.6042 -0.8928,0.5189 -0.8703,0.5557 -0.8464,0.5915 -0.8212,0.6261 -1.142,-1.4347 -0.345,-0.3357 -0.3855,-0.3028 -0.4128,-0.2801 -0.4355,-0.2604 -0.4556,-0.2424 -0.4738,-0.2252 -0.4906,-0.2085 -0.5065,-0.1923 -0.5213,-0.1761 -0.5354,-0.1601 -0.5488,-0.144 -0.4284,0.4052 -0.4208,0.4131 -0.4131,0.4208 -0.4052,0.4284 0.144,0.5488 0.1601,0.5354 0.1761,0.5213 0.1923,0.5065 0.2085,0.4906 0.2252,0.4738 0.2424,0.4556 0.2604,0.4355 0.2801,0.4128 0.3028,0.3855 0.3357,0.345 1.4347,1.142 -0.6261,0.8212 -0.5915,0.8464 -0.5557,0.8703 -0.5189,0.8928 -1.6042,-0.8885 -0.4472,-0.1781 -0.4721,-0.1323 -0.4885,-0.1008 -0.502,-0.0739 -0.5137,-0.0496 -0.5239,-0.0267 -0.5331,-0.005 -0.5414,0.0162 -0.5491,0.0368 -0.5559,0.057 -0.5621,0.0769 -0.2407,0.5383 -0.2307,0.5427 -0.2206,0.5469 -0.2105,0.5508 0.3431,0.4519 0.3528,0.4334 0.3622,0.4143 0.3714,0.3943 0.3805,0.3735 0.3893,0.3515 0.3983,0.3282 0.4072,0.3026 0.4168,0.2742 0.4273,0.2403 0.4421,0.1903 1.7626,0.5061 -0.2643,0.9982 -0.2225,1.0083 -0.1803,1.0168 -0.1378,1.0234 -1.8221,-0.207 -0.4813,0.007 -0.4868,0.0584 -0.4899,0.0939 -0.4921,0.1238 -0.4935,0.1508 -0.4942,0.1757 -0.4944,0.1995 -0.4941,0.2222 -0.4932,0.2441 -0.4917,0.2654 -0.49,0.2862 -0.0163,0.5894 -0.006,0.5897 0.006,0.5897 0.0163,0.5894 0.49,0.2862 0.4917,0.2654 0.4932,0.2441 0.4941,0.2222 0.4944,0.1995 0.4942,0.1757 0.4935,0.1508 0.4921,0.1238 0.4899,0.0939 0.4868,0.0584 0.4813,0.007 1.8221,-0.207 0.1378,1.0234 0.1803,1.0168 0.2225,1.0083 0.2643,0.9982 -1.7626,0.5061 -0.4421,0.1903 -0.4273,0.2403 -0.4168,0.2742 -0.4072,0.3026 -0.3983,0.3282 -0.3893,0.3515 -0.3805,0.3735 -0.3714,0.3943 -0.3622,0.4143 -0.3528,0.4334 -0.3431,0.4519 0.2105,0.5508 0.2206,0.5469 0.2307,0.5427 0.2407,0.5383 0.5621,0.0769 0.5559,0.057 0.5491,0.0368 0.5414,0.0162 0.5331,-0.005 0.5239,-0.0267 0.5137,-0.0496 0.502,-0.0739 0.4885,-0.1008 0.4721,-0.1323 0.4472,-0.1781 1.6042,-0.8885 0.5189,0.8928 0.5557,0.8703 0.5915,0.8464 0.6261,0.8212 -1.4347,1.142 -0.3357,0.345 -0.3028,0.3855 -0.2801,0.4128 -0.2604,0.4355 -0.2424,0.4556 -0.2252,0.4738 -0.2085,0.4906 -0.1923,0.5065 -0.1761,0.5213 -0.1601,0.5354 -0.144,0.5488 0.4052,0.4284 0.4131,0.4208 0.4208,0.4131 0.4284,0.4052 0.5488,-0.144 0.5354,-0.1601 0.5213,-0.1761 0.5065,-0.1923 0.4906,-0.2085 0.4738,-0.2252 0.4556,-0.2424 0.4355,-0.2604 0.4128,-0.2801 0.3855,-0.3028 0.345,-0.3357 1.142,-1.4347 0.8212,0.6261 0.8464,0.5915 0.8703,0.5557 0.8928,0.5189 -0.8885,1.6042 -0.1781,0.4472 -0.1323,0.4721 -0.1008,0.4885 -0.0739,0.502 -0.0496,0.5137 -0.0267,0.5239 -0.005,0.5331 0.0162,0.5414 0.0368,0.5491 0.057,0.5559 0.0769,0.5621 0.5383,0.2407 0.5427,0.2307 0.5469,0.2206 0.5508,0.2105 0.4519,-0.3431 0.4334,-0.3528 0.4143,-0.3622 0.3943,-0.3714 0.3735,-0.3805 0.3515,-0.3893 0.3282,-0.3983 0.3026,-0.4072 0.2742,-0.4168 0.2403,-0.4273 0.1903,-0.4421 0.5061,-1.7626 0.9982,0.2643 1.0083,0.2225 1.0168,0.1803 1.02341,0.1378 -0.207,1.8221 0.007,0.4813 0.0584,0.4868 0.0939,0.4899 0.1238,0.4921 0.1508,0.4935 0.1757,0.4942 0.1995,0.4944 0.2222,0.4941 0.2441,0.4932 0.2654,0.4917 0.2862,0.49 0.5894,0.0163 0.5897,0.005 0.5897,-0.005 0.5894,-0.0163 0.2862,-0.49 0.2654,-0.4917 0.2441,-0.4932 0.2222,-0.4941 0.1995,-0.4944 0.1757,-0.4942 0.1508,-0.4935 0.1238,-0.4921 0.0939,-0.4899 0.0584,-0.4868 0.007,-0.4813 -0.207,-1.8221 1.0234,-0.1378 1.0168,-0.1803 1.0083,-0.2225 0.9982,-0.2643 0.5061,1.7626 0.1903,0.4421 0.2403,0.4273 0.2742,0.4168 0.3026,0.4072 0.3282,0.3983 0.3515,0.3893 0.3735,0.3805 0.3943,0.3714 0.4143,0.3622 0.4334,0.3528 0.4519,0.3431 0.5508,-0.2105 0.5469,-0.2206 0.5427,-0.2307 0.5383,-0.2407 0.0769,-0.5621 0.057,-0.5559 0.0368,-0.5491 0.0162,-0.5414 -0.005,-0.5331 -0.0267,-0.5239 -0.0496,-0.5137 -0.0739,-0.502 -0.1008,-0.4885 -0.1323,-0.4721 -0.1781,-0.4472 -0.8885,-1.6042 0.8928,-0.5189 0.8703,-0.5557 0.8464,-0.5915 0.8212,-0.6261 1.142,1.4347 0.345,0.3357 0.3855,0.3028 0.4128,0.2801 0.4355,0.2604 0.4556,0.2424 0.4738,0.2252 0.4906,0.2085 0.5065,0.1923 0.5213,0.1761 0.5354,0.1601 0.5488,0.144 0.4284,-0.4052 0.4208,-0.4131 0.4131,-0.4208 0.4052,-0.4284 -0.144,-0.5488 -0.1601,-0.5354 -0.1761,-0.5213 -0.1923,-0.5065 -0.2085,-0.4906 -0.2252,-0.4738 -0.2424,-0.4556 -0.2604,-0.4355 -0.2801,-0.4128 -0.3028,-0.3855 -0.3357,-0.345 -1.4347,-1.142 0.6261,-0.8212 0.5915,-0.8464 0.5557,-0.8703 0.5189,-0.8928 1.6042,0.8885 0.4472,0.1781 0.4721,0.1323 0.4885,0.1008 0.502,0.0739 0.5137,0.0496 0.5239,0.0267 0.5331,0.005 0.5414,-0.0162 0.5491,-0.0368 0.5559,-0.057 0.5621,-0.0769 0.2407,-0.5383 0.2307,-0.5427 0.2206,-0.5469 0.2105,-0.5508 -0.3431,-0.4519 -0.3528,-0.4334 -0.3622,-0.4143 -0.3714,-0.3943 -0.3805,-0.3735 -0.3893,-0.3515 -0.3983,-0.3282 -0.4072,-0.3026 -0.4168,-0.2742 -0.4273,-0.2403 -0.4421,-0.1903 -1.7626,-0.5061 0.2643,-0.9982 0.0735,-0.57289 -11.38448,-0.0142 -0.0258,6.7941 -6.02042,0 0,-24.11022 6.02042,0 -1.2e-4,6.76783 11.55437,0.0231 z"
       inkscape:connector-curvature="0"
       sodipodi:nodetypes="cccccccccccccccccccccccccccccccccccccccccccccccccccccccccccccccccccccccccccccccccccccccccccccccccccccccccccccccccccccccccccccccccccccccccccccccccccccccccccccccccccccccccccccccccccccccccccccccccccccccccccccccccccccccccccccccccccccccccccccccccccccccccccccccccccccccccccccccccccccccccccccccccccccccccccccccccccccccccccccccccccccccccccccccccccccccccccccccccccccccccccccccccccccccccccccccccccccccccccccccccccccccccccccccccccccccccccccccccccccccccccccccccccccccccccccccccccccccccccccccccccccccc" />
    <circle
       style="opacity:1;fill:none;fill-opacity:1;stroke:#000000;stroke-width:0.35433072;stroke-linecap:round;stroke-linejoin:round;stroke-miterlimit:4;stroke-dasharray:none;stroke-opacity:1"
       id="circle8334"
       cx="264.58353"
       cy="135.01292"
       r="17.716536" />
  </g>
  <g
     transform="translate(159.46044,-27.513674)"
     id="g8336">
    <g
       id="g8338"
       transform="translate(0.4502075,0.74871133)">
      <g
         id="g8340">
        <path
           transform="translate(0,-354.33071)"
           inkscape:connector-curvature="0"
           id="path8342"
           d="m 245.94051,435.20236 a 8.2965219,8.2965219 0 0 1 -8.29652,8.29652 8.2965219,8.2965219 0 0 1 -8.29653,-8.29652 8.2965219,8.2965219 0 0 1 8.29653,-8.29652 8.2965219,8.2965219 0 0 1 8.29652,8.29652 z"
           style="fill:none;fill-opacity:1;stroke:#000000;stroke-width:0.4148261;stroke-linecap:round;stroke-miterlimit:4;stroke-dasharray:none;stroke-opacity:1" />
      </g>
      <path
         sodipodi:nodetypes="cccccccccccccccccccccccccccccccccccccccccccccccccccccccccccccccccccccccccccccccccccccccccccccccccccccccccccccccccccccccccccccccccccccccccccccccccccccccccccccccccccccccccccccccccccccccccccccccccccccccccccccccccccccccccccccccccccccccccccccccccccccccccccccccccccccccccccccccccccccccccccccccccccccccccccccccccccccccccccccccccccccccccccccccccccccccccccccccccccccccccccccccccccccccccccccccccccccccccccccccccccccccccccccccccccccccccccccccccccccccccccccccccccccccccccccccccccccccccccccccccccccccccccccccccccccccccccccccccccccccccccccccccccccccccccccc"
         inkscape:connector-curvature="0"
         id="path8344"
         d="m 259.22817,87.842936 -0.0258,6.794103 -6.02042,0 0,-24.11022 6.02042,0 -1.2e-4,6.76783 11.63814,2.4e-5 c 0.52385,-0.341064 0.99742,-0.653218 1.43689,-1.012923 l 0.4509,-0.3703 -0.0897,-0.5972 -0.0997,-0.5955 -0.11,-0.5937 -0.12,-0.5918 -0.5503,-0.1938 -0.5485,-0.1734 -0.546,-0.1527 -0.5431,-0.1313 -0.5395,-0.1094 -0.5353,-0.0863 -0.5304,-0.0622 -0.5245,-0.0361 -0.5174,-0.007 -0.5085,0.0271 -0.4946,0.0771 -1.5585,0.4426 -0.298,-0.9813 -0.3332,-0.9699 -0.3682,-0.9572 -0.4025,-0.9432 1.4784,-0.6627 0.4285,-0.2589 0.4069,-0.3061 0.3918,-0.338 0.3786,-0.3648 0.3663,-0.3885 0.3546,-0.4103 0.343,-0.4305 0.3316,-0.4497 0.3202,-0.468 0.3086,-0.4854 0.29701,-0.5022 -0.28841,-0.5305 -0.2975,-0.5254 -0.3063,-0.5204 -0.3152,-0.515 -0.5834,0.006 -0.5747,0.0246 -0.5653,0.0433 -0.5553,0.0623 -0.5444,0.0818 -0.5325,0.102 -0.5197,0.123 -0.5052,0.1454 -0.4887,0.1703 -0.4685,0.1993 -0.4384,0.2417 -1.3131,0.949 -0.6157,-0.8202 -0.6449,-0.7975 -0.6733,-0.7735 -0.7008,-0.7487 1.1625,-1.1284 0.3142,-0.3898 0.2777,-0.4268 0.2525,-0.4517 0.231,-0.4723 0.2113,-0.4903 0.1929,-0.5068 0.1751,-0.5219 0.1578,-0.536 0.1408,-0.5492 0.124,-0.5617 0.1074,-0.5735 -0.4525,-0.3998 -0.45929,-0.3921 -0.4658,-0.3842 -0.47231,-0.3762 -0.5462,0.2053 -0.5316,0.2197 -0.5164,0.234 -0.50049,0.2485 -0.4835,0.2631 -0.4656,0.2779 -0.4463,0.2933 -0.42501,0.3095 -0.4009,0.3271 -0.3721,0.3476 -0.32929,0.3771 -0.9094,1.3408 -0.85901,-0.5602 -0.8788,-0.5288 -0.8973,-0.4966 -0.9146,-0.4638 0.7065,-1.458 0.1619,-0.4737 0.1149,-0.496 0.0828,-0.5108 0.0556,-0.5228 0.0309,-0.5331 0.008,-0.5422 -0.014,-0.5503 -0.035,-0.5577 -0.0555,-0.5642 -0.0756,-0.5703 -0.0953,-0.5756 -0.5619,-0.2209 -0.5657,-0.2114 -0.5691,-0.2017 -0.5725,-0.1919 -0.443,0.3797 -0.4245,0.3882 -0.4052,0.3966 -0.3853,0.4046 -0.3644,0.4126 -0.3425,0.4204 -0.319,0.4283 -0.2935,0.4362 -0.2649,0.4445 -0.2308,0.4539 -0.18039,0.4669 -0.396,1.571 -0.9988,-0.2326 -1.0066,-0.1963 -1.013,-0.1598 -1.0182,-0.123 0.1653,-1.6117 -0.01,-0.5005 -0.0616,-0.5055 -0.0969,-0.5083 -0.1267,-0.5103 -0.1532,-0.5115 -0.1781,-0.5122 -0.2013,-0.5123 -0.2236,-0.512 -0.2452,-0.5113 -0.266,-0.51 -0.2865,-0.5083 -0.6036,-0.0154 -0.6038,-0.005 -0.6038,0.005 -0.6036,0.0154 -0.2865,0.5083 -0.266,0.51 -0.2452,0.5113 -0.2236,0.512 -0.2013,0.5123 -0.1781,0.5122 -0.1532,0.5115 -0.1267,0.5103 -0.0969,0.5083 -0.0616,0.5055 -0.01,0.5005 0.1653,1.6117 -1.0182,0.123 -1.013,0.1598 -1.0066,0.1963 -0.9988,0.2326 -0.396,-1.571 -0.1804,-0.4669 -0.2308,-0.4539 -0.2649,-0.4445 -0.2935,-0.4362 -0.319,-0.4283 -0.3425,-0.4204 -0.3644,-0.4126 -0.3853,-0.4046 -0.4052,-0.3966 -0.4245,-0.3882 -0.443,-0.3797 -0.5725,0.1919 -0.5691,0.2017 -0.5657,0.2114 -0.5619,0.2209 -0.0953,0.5756 -0.0756,0.5703 -0.0555,0.5642 -0.035,0.5577 -0.014,0.5503 0.008,0.5422 0.0309,0.5331 0.0556,0.5228 0.0828,0.5108 0.1149,0.496 0.1619,0.4737 0.7065,1.458 -0.9146,0.4638 -0.8973,0.4966 -0.8788,0.5288 -0.859,0.5602 -0.9094,-1.3408 -0.3293,-0.3771 -0.3721,-0.3476 -0.4009,-0.3271 -0.425,-0.3095 -0.4463,-0.2933 -0.4656,-0.2779 -0.4835,-0.2631 -0.5005,-0.2485 -0.5164,-0.234 -0.5316,-0.2197 -0.5462,-0.2053 -0.4723,0.3762 -0.4658,0.3842 -0.4593,0.3921 -0.4525,0.3998 0.1074,0.5735 0.124,0.5617 0.1408,0.5492 0.1578,0.536 0.1751,0.5219 0.1929,0.5068 0.2113,0.4903 0.231,0.4723 0.2525,0.4517 0.2777,0.4268 0.3142,0.3898 1.1625,1.1284 -0.7008,0.7487 -0.6733,0.7735 -0.6449,0.7975 -0.6157,0.8202 -1.3131,-0.949 -0.4384,-0.2417 -0.4685,-0.1993 -0.4887,-0.1703 -0.5052,-0.1454 -0.5197,-0.123 -0.5325,-0.102 -0.5444,-0.0818 -0.5553,-0.0623 -0.5653,-0.0433 -0.5747,-0.0246 -0.5834,-0.006 -0.3152,0.515 -0.3063,0.5204 -0.2975,0.5254 -0.2884,0.5305 0.297,0.5022 0.3086,0.4854 0.3202,0.468 0.3316,0.4497 0.343,0.4305 0.3546,0.4103 0.3663,0.3885 0.3786,0.3648 0.3918,0.338 0.4069,0.3061 0.4285,0.2589 1.4784,0.6627 -0.4025,0.9432 -0.3682,0.9572 -0.3332,0.9699 -0.298,0.9813 -1.5585,-0.4426 -0.4946,-0.0771 -0.5085,-0.0271 -0.5174,0.007 -0.5245,0.0361 -0.5304,0.0622 -0.5353,0.0863 -0.5395,0.1094 -0.5431,0.1313 -0.546,0.1527 -0.5485,0.1734 -0.5503,0.1938 -0.12,0.5918 -0.11,0.5937 -0.0997,0.5955 -0.0897,0.5972 0.4509,0.3703 0.4561,0.3506 0.4608,0.3302 0.4655,0.3091 0.4696,0.2873 0.4735,0.2642 0.4771,0.2398 0.4805,0.2133 0.4838,0.1837 0.4871,0.1485 0.4911,0.0966 1.6159,0.1172 -0.0556,1.024 -0.0186,1.0254 0.0186,1.0254 0.0556,1.024 -1.6159,0.1172 -0.4911,0.0966 -0.4871,0.1485 -0.4838,0.1837 -0.4805,0.2133 -0.4771,0.2398 -0.4735,0.2642 -0.4696,0.2873 -0.4655,0.3091 -0.4608,0.3302 -0.4561,0.3506 -0.4509,0.3703 0.0897,0.5972 0.0997,0.5955 0.11,0.5937 0.12,0.5918 0.5503,0.1938 0.5485,0.1734 0.546,0.1527 0.5431,0.1313 0.5395,0.1094 0.5353,0.0863 0.5304,0.0622 0.5245,0.0361 0.5174,0.007 0.5085,-0.0271 0.4946,-0.0771 1.5585,-0.4426 0.298,0.9813 0.3332,0.9699 0.3682,0.9572 0.4025,0.9432 -1.4784,0.6627 -0.4285,0.2589 -0.4069,0.3061 -0.3918,0.338 -0.3786,0.3648 -0.3663,0.3885 -0.3546,0.4103 -0.343,0.4305 -0.3316,0.4497 -0.3202,0.468 -0.3086,0.4854 -0.297,0.5022 0.2884,0.5305 0.2975,0.5254 0.3063,0.5204 0.3152,0.515 0.5834,-0.006 0.5747,-0.0246 0.5653,-0.0433 0.5553,-0.0623 0.5444,-0.0818 0.5325,-0.102 0.5197,-0.123 0.5052,-0.1454 0.4887,-0.1703 0.4685,-0.1993 0.4384,-0.2417 1.3131,-0.949 0.6157,0.8202 0.6449,0.7975 0.6733,0.7735 0.7008,0.7487 -1.1625,1.1284 -0.3142,0.3898 -0.2777,0.4268 -0.2525,0.4517 -0.231,0.4723 -0.2113,0.4903 -0.1929,0.5068 -0.1751,0.5219 -0.1578,0.536 -0.1408,0.5492 -0.124,0.5617 -0.1074,0.5735 0.4525,0.3998 0.4593,0.3921 0.4658,0.3842 0.4723,0.3762 0.5462,-0.2053 0.5316,-0.2197 0.5164,-0.234 0.5005,-0.2485 0.4835,-0.2631 0.4656,-0.2779 0.4463,-0.2933 0.425,-0.3095 0.4009,-0.3271 0.3721,-0.3476 0.3293,-0.3771 0.9094,-1.3408 0.859,0.5602 0.8788,0.5288 0.8973,0.4966 0.9146,0.4638 -0.7065,1.458 -0.1619,0.4737 -0.1149,0.496 -0.0828,0.5108 -0.0556,0.5228 -0.0309,0.5331 -0.008,0.5422 0.014,0.5503 0.035,0.5577 0.0555,0.5642 0.0756,0.5703 0.0953,0.5756 0.5619,0.2209 0.5657,0.2114 0.5691,0.2017 0.5725,0.1919 0.443,-0.3797 0.4245,-0.3882 0.4052,-0.3966 0.3853,-0.4046 0.3644,-0.4126 0.3425,-0.4204 0.319,-0.4283 0.2935,-0.4362 0.2649,-0.4445 0.2308,-0.4539 0.1804,-0.4669 0.396,-1.571 0.9988,0.2326 1.0066,0.1963 1.013,0.1598 1.0182,0.123 -0.1653,1.6117 0.01,0.5005 0.0616,0.5055 0.0969,0.5083 0.1267,0.5103 0.1532,0.5115 0.1781,0.5122 0.2013,0.5123 0.2236,0.512 0.2452,0.5113 0.266,0.51 0.2865,0.5083 0.6036,0.0154 0.6038,0.005 0.6038,-0.005 0.6036,-0.0154 0.2865,-0.5083 0.266,-0.51 0.2452,-0.5113 0.2236,-0.512 0.2013,-0.5123 0.1781,-0.5122 0.1532,-0.5115 0.1267,-0.5103 0.0969,-0.5083 0.0616,-0.5055 0.01,-0.5005 -0.1653,-1.6117 1.0182,-0.123 1.013,-0.1598 1.0066,-0.1963 0.9988,-0.2326 0.396,1.571 0.18039,0.4669 0.2308,0.4539 0.2649,0.4445 0.2935,0.4362 0.319,0.4283 0.3425,0.4204 0.3644,0.4126 0.3853,0.4046 0.4052,0.3966 0.4245,0.3882 0.443,0.3797 0.5725,-0.1919 0.5691,-0.2017 0.5657,-0.2114 0.5619,-0.2209 0.0953,-0.5756 0.0756,-0.5703 0.0555,-0.5642 0.035,-0.5577 0.014,-0.5503 -0.008,-0.5422 -0.0309,-0.5331 -0.0556,-0.5228 -0.0828,-0.5108 -0.1149,-0.496 -0.1619,-0.4737 -0.7065,-1.458 0.9146,-0.4638 0.8973,-0.4966 0.8788,-0.5288 0.85901,-0.5602 0.9094,1.3408 0.32929,0.3771 0.3721,0.3476 0.4009,0.3271 0.42501,0.3095 0.4463,0.2933 0.4656,0.2779 0.4835,0.2631 0.50049,0.2485 0.5164,0.234 0.5316,0.2197 0.5462,0.2053 0.47231,-0.3762 0.4658,-0.3842 0.45929,-0.3921 0.4525,-0.3998 -0.1074,-0.5735 -0.124,-0.5617 -0.1408,-0.5492 -0.1578,-0.536 -0.1751,-0.5219 -0.1929,-0.5068 -0.2113,-0.4903 -0.231,-0.4723 -0.2525,-0.4517 -0.2777,-0.4268 -0.3142,-0.3898 -1.1625,-1.1284 0.7008,-0.7487 0.6733,-0.7735 0.6449,-0.7975 0.6157,-0.8202 1.3131,0.949 0.4384,0.2417 0.4685,0.1993 0.4887,0.1703 0.5052,0.1454 0.5197,0.123 0.5325,0.102 0.5444,0.0818 0.5553,0.0623 0.5653,0.0433 0.5747,0.0246 0.5834,0.006 0.3152,-0.515 0.3063,-0.5204 0.2975,-0.5254 0.28841,-0.5305 -0.29701,-0.5022 -0.3086,-0.4854 -0.3202,-0.468 -0.3316,-0.4497 -0.343,-0.4305 -0.3546,-0.4103 -0.3663,-0.3885 -0.3786,-0.3648 -0.3918,-0.338 -0.4069,-0.3061 -0.4285,-0.2589 -1.4784,-0.6627 0.4025,-0.9432 0.3682,-0.9572 0.3332,-0.9699 0.25608,-1.746685 z"
         style="opacity:1;fill:none;fill-opacity:1;stroke:#000000;stroke-width:0.35433072;stroke-linecap:round;stroke-linejoin:round;stroke-miterlimit:4;stroke-dasharray:none;stroke-opacity:1" />
    </g>
    <circle
       r="17.716536"
       cy="81.620361"
       cx="238.09419"
       id="circle8346"
       style="opacity:1;fill:none;fill-opacity:1;stroke:#000000;stroke-width:0.35433072;stroke-linecap:round;stroke-linejoin:round;stroke-miterlimit:4;stroke-dasharray:none;stroke-opacity:1" />
  </g>
  <g
     transform="translate(298.99034,90.066671)"
     id="g8387">
    <g
       id="g8389" />
  </g>
  <g
     id="g9494"
     transform="translate(164.73137,99.575881)">
    <g
       id="g9496" />
  </g>
  <g
     transform="translate(181.22175,157.39942)"
     id="g9502">
    <g
       id="g9504" />
  </g>
  <g
     id="g9556">
    <path
       inkscape:connector-curvature="0"
       id="path8367"
       d="m 604.16874,135.18657 0,176.28544 c 0,8.33013 -9.81505,15.03633 -22.00684,15.03633 l -203.56302,0 c -12.1918,0 -22.00685,-6.7062 -22.00685,-15.03633 l 0,-176.28544 c 0,-8.33013 9.81505,-15.03634 22.00685,-15.03634 l 203.56302,0 c 12.19179,0 22.00684,6.70621 22.00684,15.03634 z"
       style="fill:none;fill-opacity:1;stroke:#000000;stroke-width:0.45476747;stroke-linecap:round;stroke-miterlimit:4;stroke-dasharray:none;stroke-opacity:1"
       sodipodi:nodetypes="sssssssss" />
    <path
       style="fill:none;fill-opacity:1;stroke:#000000;stroke-width:0.5422048;stroke-linecap:round;stroke-miterlimit:4;stroke-dasharray:none;stroke-opacity:1"
       d="m 472.71094,209.77499 10.08771,0 0,20.98767 -10.08771,0 z"
       id="path8369"
       inkscape:connector-curvature="0" />
    <circle
       style="opacity:1;fill:none;fill-opacity:1;stroke:#000000;stroke-width:0.35433072;stroke-linecap:round;stroke-linejoin:round;stroke-miterlimit:4;stroke-dasharray:none;stroke-opacity:1"
       id="circle8383"
       cx="563.41632"
       cy="225.35522"
       r="17.716536" />
    <circle
       r="17.716536"
       cy="170.93832"
       cx="536.63434"
       id="circle8395"
       style="opacity:1;fill:none;fill-opacity:1;stroke:#000000;stroke-width:0.35433072;stroke-linecap:round;stroke-linejoin:round;stroke-miterlimit:4;stroke-dasharray:none;stroke-opacity:1" />
    <circle
       style="opacity:1;fill:none;fill-opacity:1;stroke:#000000;stroke-width:0.35433072;stroke-linecap:round;stroke-linejoin:round;stroke-miterlimit:4;stroke-dasharray:none;stroke-opacity:1"
       id="circle9498"
       cx="402.37537"
       cy="180.44753"
       r="17.716536" />
    <circle
       r="17.716536"
       cy="238.27107"
       cx="418.86572"
       id="circle9506"
       style="opacity:1;fill:none;fill-opacity:1;stroke:#000000;stroke-width:0.35433072;stroke-linecap:round;stroke-linejoin:round;stroke-miterlimit:4;stroke-dasharray:none;stroke-opacity:1" />
  </g>
  <path
     style="opacity:1;fill:none;fill-opacity:1;stroke:#000000;stroke-width:0.35433072;stroke-linecap:round;stroke-linejoin:round;stroke-miterlimit:4;stroke-dasharray:none;stroke-opacity:1"
     d="m 761.81102,336.6142 0,10.62992 -24.80315,0 0,-10.62993 -4.9e-4,-53.14962 -10.62945,1e-5 0.006,-10.62992 0.006,-10.62992 10.62992,0 -0.006,10.62992 10.60876,0 0.0152,-10.62992 10.62992,0 -3e-5,10.62992 -2e-5,10.62992 -10.62824,-1e-5 -0.004,53.14962 z"
     id="rect9576"
     inkscape:connector-curvature="0"
     sodipodi:nodetypes="cccccccccccccccccc" />
  <g
     id="g9584"
     inkscape:label="RackGear20"
     transform="matrix(0,1,-1,0,652.62933,-80.767791)">
    <path
       id="path9586"
       style="fill:none;stroke:#000000;stroke-width:0.60000002"
       d="m 125.83761,32.571945 -220.160053,0 0,-11.312145 220.112063,0 z M 143.27899,3.5433 l -17.7166,0 -2.5793,-7.0866 -2.9865,0 -2.5793,7.0866 -2.9865,0 -2.5793,-7.0866 -2.9865,0 -2.5793,7.0866 -2.9865,0 -2.5793,-7.0866 -2.986503,0 -2.5793,7.0866 -2.9865,0 -2.5794,-7.0866 -2.9865,0 -2.5793,7.0866 -2.9865,0 -2.5793,-7.0866 -2.9865,0 -2.5793,7.0866 -2.9865,0 -2.5793,-7.0866 -2.9865,0 -2.5793,7.0866 -2.9865,0 -2.5793,-7.0866 -2.9865,0 -2.5794,7.0866 -2.9865,0 -2.5793,-7.0866 -2.9865,0 -2.5793,7.0866 -2.9865,0 -2.5793,-7.0866 -2.9865,0 -2.5793,7.0866 -2.9865,0 -2.5793,-7.0866 -2.9865,0 -2.5793,7.0866 -2.9865,0 -2.5794,-7.0866 -2.9864005,0 -2.5794,7.0866 -2.9865,0 -2.57929995,-7.0866 -2.98650005,0 -2.5793,7.0866 -2.9865,0 -2.5792995,-7.0866 -2.9865,0 -2.5793,7.0866 -2.9865,0 -2.5793,-7.0866 -2.9865,0 -2.5793,7.0866 -2.9865,0 -2.5794,-7.0866 -2.9865,0 -2.5793,7.0866 -2.9865,0 -2.5793,-7.0866 -2.9865,0 -2.5793,7.0866 -2.9865,0 -2.5793,-7.0866 -2.9865,0 -2.5793,7.0866 -2.9865,0 -2.5793,-7.0866 -2.9865,0 -2.5794,7.0866 -2.9865,0 -2.5793,-7.0866 -2.9865,0 -2.5793,7.0866 -2.9865,0 -2.5793,-7.0866 -2.9865,0 -2.5793,7.0866 -17.716497,0 0,23.372572 0,23.372573 17.716497,0 2.5793,7.0866 2.9865,0 2.5793,-7.0866 2.9865,0 2.5793,7.0866 2.9865,0 2.5793,-7.0866 2.9865,0 2.5794,7.0866 2.9865,0 2.5793,-7.0866 2.9865,0 2.5793,7.0866 2.9865,0 2.5793,-7.0866 2.9865,0 2.5793,7.0866 2.9865,0 2.5793,-7.0866 2.9865,0 2.5793,7.0866 2.9865,0 2.5794,-7.0866 2.9865,0 2.5793,7.0866 2.9865,0 2.5793,-7.0866 2.9865,0 2.5793,7.0866 2.9865,0 2.5792995,-7.0866 2.9865,0 2.5793,7.0866 2.98650005,0 2.57929995,-7.0866 2.9865,0 2.5794,7.0866 2.9864005,0 2.5794,-7.0866 2.9865,0 2.5793,7.0866 2.9865,0 2.5793,-7.0866 2.9865,0 2.5793,7.0866 2.9865,0 2.5793,-7.0866 2.9865,0 2.5793,7.0866 2.9865,0 2.5793,-7.0866 2.9865,0 2.5794,7.0866 2.9865,0 2.5793,-7.0866 2.9865,0 2.5793,7.0866 2.9865,0 2.5793,-7.0866 2.9865,0 2.5793,7.0866 2.9865,0 2.5793,-7.0866 2.9865,0 2.5793,7.0866 2.9865,0 2.5794,-7.0866 2.9865,0 2.5793,7.0866 2.986503,0 2.5793,-7.0866 2.9865,0 2.5793,7.0866 2.9865,0 2.5793,-7.0866 2.9865,0 2.5793,7.0866 2.9865,0 2.5793,-7.0866 17.7166,0 0,-23.372573 z"
       inkscape:connector-curvature="0"
       sodipodi:nodetypes="cccccccccccccccccccccccccccccccccccccccccccccccccccccccccccccccccccccccccccccccccccccccccccccccccccccccccccccccccccccccccccccccccccccccccccccccccccccccccccccccccccccccccccc" />
  </g>
</svg>
